<svg width="2600" height="527" viewBox="0 0 2600 527" fill="none" xmlns="http://www.w3.org/2000/svg">
<mask id="path-1-inside-1_3553_7462" fill="white">
<path d="M-5.72 371.68H46.64V377.12C48.9067 389.36 57.9733 402.053 73.84 415.2C89.7067 427.893 108.973 438.547 131.64 447.16C154.76 455.773 177.2 460.08 198.96 460.08C210.293 460.08 219.36 458.267 226.16 454.64C233.413 450.56 237.04 445.12 237.04 438.32C237.04 433.333 235 429.027 230.92 425.4C227.293 421.773 220.04 417.92 209.16 413.84C198.733 409.76 182.413 404.547 160.2 398.2C123.48 388.68 93.3333 378.48 69.76 367.6C46.64 356.267 28.96 342.44 16.72 326.12C4.48 309.8 -1.64 289.173 -1.64 264.24C-1.64 230.693 10.1467 205.08 33.72 187.4C57.7467 169.267 89.2533 160.2 128.24 160.2C143.2 160.2 156.573 161.107 168.36 162.92C180.147 164.28 192.613 166.547 205.76 169.72C216.187 171.987 226.613 174.48 237.04 177.2V145.24H294.84V296.88H241.12V292.8C239.307 281.467 230.693 269.907 215.28 258.12C199.867 246.333 181.733 236.587 160.88 228.88C140.48 221.173 123.027 217.32 108.52 217.32C99.9067 217.32 92.88 219.133 87.44 222.76C82 226.387 79.28 231.147 79.28 237.04C79.28 245.2 83.1333 252 90.84 257.44C98.5467 262.427 112.827 268.547 133.68 275.8C138.213 277.16 142.973 278.747 147.96 280.56C153.4 281.92 158.84 283.507 164.28 285.32C167 286.227 169.947 287.133 173.12 288.04C176.293 288.947 179.24 289.853 181.96 290.76C216.867 301.64 243.84 312.067 262.88 322.04C281.92 331.56 295.973 343.12 305.04 356.72C314.56 369.867 319.32 387.32 319.32 409.08C319.32 444.44 307.533 471.187 283.96 489.32C260.84 507 229.107 515.84 188.76 515.84C179.24 515.84 168.813 515.387 157.48 514.48C146.147 513.573 134.587 512.44 122.8 511.08C90.16 507.453 66.36 503.373 51.4 498.84V526.04H-5.72V371.68ZM510.193 513.8C483.899 513.8 461.233 507.68 442.193 495.44C423.153 483.2 408.419 465.973 397.993 443.76C387.566 421.093 382.353 394.347 382.353 363.52V231.6H337.473V167H500.673V354.68C500.673 383.693 504.753 405.68 512.913 420.64C521.073 435.147 532.406 442.4 546.913 442.4C557.793 442.4 567.313 438.547 575.473 430.84C583.633 422.68 589.753 411.347 593.833 396.84C598.366 382.333 600.633 365.333 600.633 345.84V231.6H544.873V167H770.633V231.6H718.273V442.4H770.633V507H606.753V461.44C596.326 478.667 582.953 491.813 566.633 500.88C550.766 509.493 531.953 513.8 510.193 513.8ZM787.707 442.4H840.067V231.6H787.707V167H951.587V210.52C962.014 193.747 974.934 181.28 990.347 173.12C1005.76 164.507 1023.89 160.2 1044.75 160.2C1068.32 160.2 1088.72 165.64 1105.95 176.52C1123.17 187.4 1136.55 203.267 1146.07 224.12C1155.59 203.267 1168.96 187.4 1186.19 176.52C1203.87 165.64 1224.95 160.2 1249.43 160.2C1290.68 160.2 1322.87 173.347 1345.99 199.64C1369.11 225.933 1380.67 262.653 1380.67 309.8V442.4H1425.55V507H1224.27V442.4H1262.35V318.64C1262.35 289.627 1258.49 267.867 1250.79 253.36C1243.53 238.853 1233.11 231.6 1219.51 231.6C1209.53 231.6 1200.69 235.227 1192.99 242.48C1185.28 249.733 1179.39 259.707 1175.31 272.4C1171.23 285.093 1169.19 299.373 1169.19 315.24V442.4H1207.27V507H1012.79V442.4H1050.87V318.64C1050.87 289.627 1047.01 267.867 1039.31 253.36C1032.05 238.853 1021.63 231.6 1008.03 231.6C998.054 231.6 989.214 235.68 981.507 243.84C973.801 251.547 967.907 262.653 963.827 277.16C959.747 291.667 957.707 308.44 957.707 327.48V442.4H995.787V507H787.707V442.4ZM1443.14 442.4H1495.5V231.6H1443.14V167H1607.02V210.52C1617.44 193.747 1630.36 181.28 1645.78 173.12C1661.19 164.507 1679.32 160.2 1700.18 160.2C1723.75 160.2 1744.15 165.64 1761.38 176.52C1778.6 187.4 1791.98 203.267 1801.5 224.12C1811.02 203.267 1824.39 187.4 1841.62 176.52C1859.3 165.64 1880.38 160.2 1904.86 160.2C1946.11 160.2 1978.3 173.347 2001.42 199.64C2024.54 225.933 2036.1 262.653 2036.1 309.8V442.4H2080.98V507H1879.7V442.4H1917.78V318.64C1917.78 289.627 1913.92 267.867 1906.22 253.36C1898.96 238.853 1888.54 231.6 1874.94 231.6C1864.96 231.6 1856.12 235.227 1848.42 242.48C1840.71 249.733 1834.82 259.707 1830.74 272.4C1826.66 285.093 1824.62 299.373 1824.62 315.24V442.4H1862.7V507H1668.22V442.4H1706.3V318.64C1706.3 289.627 1702.44 267.867 1694.74 253.36C1687.48 238.853 1677.06 231.6 1663.46 231.6C1653.48 231.6 1644.64 235.68 1636.94 243.84C1629.23 251.547 1623.34 262.653 1619.26 277.16C1615.18 291.667 1613.14 308.44 1613.14 327.48V442.4H1651.22V507H1443.14V442.4ZM2098.57 442.4H2150.93V231.6H2098.57V167H2268.57V442.4H2320.93V507H2098.57V442.4ZM2124.41 0.399956H2280.81L2206.01 136.4H2199.21L2124.41 0.399956ZM2499.45 510.4C2464.09 510.4 2436.44 500.88 2416.49 481.84C2397 462.8 2387.25 436.053 2387.25 401.6V231.6H2331.49V167H2361.41C2386.8 167 2407.43 159.747 2423.29 145.24C2439.16 130.733 2447.09 108.973 2447.09 79.96V65H2504.89V167H2601.45V231.6H2504.89V398.2C2504.89 412.253 2508.29 423.133 2515.09 430.84C2522.35 438.093 2532.32 441.72 2545.01 441.72C2554.99 441.72 2565.64 440.587 2576.97 438.32C2588.76 435.6 2598.73 432.653 2606.89 429.48V496.12C2592.84 500.2 2576.52 503.6 2557.93 506.32C2539.8 509.04 2520.31 510.4 2499.45 510.4Z"/>
</mask>
<path d="M-5.72 371.68V359.68H-17.72V371.68H-5.72ZM46.64 371.68H58.64V359.68H46.64V371.68ZM46.64 377.12H34.64V378.222L34.8406 379.305L46.64 377.12ZM73.84 415.2L66.1838 424.44L66.2632 424.506L66.3437 424.57L73.84 415.2ZM131.64 447.16L127.377 458.377L127.414 458.391L127.451 458.405L131.64 447.16ZM226.16 454.64L231.807 465.228L231.926 465.165L232.043 465.099L226.16 454.64ZM230.92 425.4L222.435 433.885L222.684 434.135L222.948 434.369L230.92 425.4ZM209.16 413.84L204.787 425.015L204.867 425.046L204.947 425.076L209.16 413.84ZM160.2 398.2L163.497 386.662L163.355 386.621L163.212 386.584L160.2 398.2ZM69.76 367.6L64.4781 378.375L64.604 378.437L64.7313 378.496L69.76 367.6ZM16.72 326.12L7.12 333.32H7.12L16.72 326.12ZM33.72 187.4L40.92 197L40.9345 196.989L40.9489 196.978L33.72 187.4ZM168.36 162.92L166.535 174.78L166.759 174.815L166.985 174.841L168.36 162.92ZM205.76 169.72L202.944 181.385L203.077 181.417L203.211 181.446L205.76 169.72ZM237.04 177.2L234.011 188.811L249.04 192.732V177.2H237.04ZM237.04 145.24V133.24H225.04V145.24H237.04ZM294.84 145.24H306.84V133.24H294.84V145.24ZM294.84 296.88V308.88H306.84V296.88H294.84ZM241.12 296.88H229.12V308.88H241.12V296.88ZM241.12 292.8H253.12V291.846L252.969 290.904L241.12 292.8ZM215.28 258.12L222.569 248.588L215.28 258.12ZM160.88 228.88L156.639 240.106L156.68 240.121L156.72 240.136L160.88 228.88ZM87.44 222.76L94.0964 232.745H94.0964L87.44 222.76ZM90.84 257.44L83.9198 267.244L84.1177 267.383L84.321 267.515L90.84 257.44ZM133.68 275.8L129.738 287.134L129.983 287.219L130.232 287.294L133.68 275.8ZM147.96 280.56L143.859 291.838L144.445 292.051L145.05 292.202L147.96 280.56ZM164.28 285.32L168.075 273.936H168.075L164.28 285.32ZM173.12 288.04L176.417 276.502L176.417 276.502L173.12 288.04ZM181.96 290.76L178.165 302.144L178.277 302.181L178.389 302.216L181.96 290.76ZM262.88 322.04L257.312 332.67L257.412 332.723L257.513 332.773L262.88 322.04ZM305.04 356.72L295.055 363.376L295.184 363.57L295.321 363.758L305.04 356.72ZM283.96 489.32L291.249 498.852L291.263 498.842L291.277 498.831L283.96 489.32ZM157.48 514.48L156.523 526.442L157.48 514.48ZM122.8 511.08L124.175 499.159L124.15 499.156L124.125 499.153L122.8 511.08ZM51.4 498.84L54.8801 487.356L39.4 482.665V498.84H51.4ZM51.4 526.04V538.04H63.4V526.04H51.4ZM-5.72 526.04H-17.72V538.04H-5.72V526.04ZM-5.72 383.68H46.64V359.68H-5.72V383.68ZM34.64 371.68V377.12H58.64V371.68H34.64ZM34.8406 379.305C37.8615 395.618 49.4643 410.587 66.1838 424.44L81.4962 405.96C66.4824 393.52 59.9519 383.102 58.4394 374.935L34.8406 379.305ZM66.3437 424.57C83.3529 438.178 103.762 449.404 127.377 458.377L135.903 435.943C114.185 427.69 96.0604 417.609 81.3363 405.83L66.3437 424.57ZM127.451 458.405C151.733 467.451 175.592 472.08 198.96 472.08V448.08C178.808 448.08 157.787 444.095 135.829 435.915L127.451 458.405ZM198.96 472.08C211.404 472.08 222.643 470.116 231.807 465.228L220.513 444.052C216.077 446.417 209.183 448.08 198.96 448.08V472.08ZM232.043 465.099C242.078 459.454 249.04 450.49 249.04 438.32H225.04C225.04 439.75 224.749 441.666 220.277 444.181L232.043 465.099ZM249.04 438.32C249.04 429.558 245.262 422.093 238.892 416.431L222.948 434.369C224.738 435.96 225.04 437.109 225.04 438.32H249.04ZM239.405 416.915C233.786 411.296 224.327 406.712 213.373 402.604L204.947 425.076C215.753 429.128 220.8 432.251 222.435 433.885L239.405 416.915ZM213.533 402.665C202.551 398.368 185.777 393.028 163.497 386.662L156.903 409.738C179.05 416.066 194.916 421.152 204.787 425.015L213.533 402.665ZM163.212 386.584C126.899 377.17 97.4906 367.182 74.7887 356.704L64.7313 378.496C89.1761 389.778 120.061 400.19 157.188 409.816L163.212 386.584ZM75.0419 356.825C53.1883 346.112 37.1642 333.379 26.32 318.92L7.12 333.32C20.7558 351.501 40.0917 366.421 64.4781 378.375L75.0419 356.825ZM26.32 318.92C15.9581 305.104 10.36 287.167 10.36 264.24H-13.64C-13.64 291.18 -6.99814 314.496 7.12 333.32L26.32 318.92ZM10.36 264.24C10.36 233.873 20.8164 212.078 40.92 197L26.52 177.8C-0.523073 198.082 -13.64 227.514 -13.64 264.24H10.36ZM40.9489 196.978C62.3507 180.826 91.0891 172.2 128.24 172.2V148.2C87.4175 148.2 53.1426 157.707 26.4911 177.822L40.9489 196.978ZM128.24 172.2C142.735 172.2 155.482 173.08 166.535 174.78L170.185 151.06C157.665 149.133 143.665 148.2 128.24 148.2V172.2ZM166.985 174.841C178.225 176.138 190.208 178.311 202.944 181.385L208.576 158.055C195.019 154.783 182.068 152.422 169.736 150.999L166.985 174.841ZM203.211 181.446C213.475 183.677 223.742 186.133 234.011 188.811L240.069 165.589C229.485 162.827 218.898 160.296 208.309 157.994L203.211 181.446ZM249.04 177.2V145.24H225.04V177.2H249.04ZM237.04 157.24H294.84V133.24H237.04V157.24ZM282.84 145.24V296.88H306.84V145.24H282.84ZM294.84 284.88H241.12V308.88H294.84V284.88ZM253.12 296.88V292.8H229.12V296.88H253.12ZM252.969 290.904C250.428 275.024 238.852 261.039 222.569 248.588L207.991 267.652C222.534 278.774 228.185 287.909 229.271 294.696L252.969 290.904ZM222.569 248.588C206.078 235.976 186.856 225.687 165.04 217.624L156.72 240.136C176.611 247.487 193.656 256.69 207.991 267.652L222.569 248.588ZM165.121 217.654C143.98 209.668 125.012 205.32 108.52 205.32V229.32C121.041 229.32 136.98 232.679 156.639 240.106L165.121 217.654ZM108.52 205.32C98.2777 205.32 88.7317 207.477 80.7836 212.775L94.0964 232.745C97.0283 230.79 101.536 229.32 108.52 229.32V205.32ZM80.7836 212.775C72.435 218.341 67.28 226.644 67.28 237.04H91.28C91.28 235.649 91.565 234.432 94.0964 232.745L80.7836 212.775ZM67.28 237.04C67.28 249.75 73.5994 259.959 83.9198 267.244L97.7602 247.636C92.6673 244.041 91.28 240.65 91.28 237.04H67.28ZM84.321 267.515C93.366 273.367 108.889 279.882 129.738 287.134L137.622 264.466C116.764 257.211 103.727 251.486 97.359 247.365L84.321 267.515ZM130.232 287.294C134.521 288.581 139.063 290.093 143.859 291.838L152.061 269.282C146.884 267.4 141.905 265.739 137.128 264.306L130.232 287.294ZM145.05 292.202C150.185 293.486 155.33 294.986 160.485 296.704L168.075 273.936C162.35 272.028 156.615 270.354 150.87 268.918L145.05 292.202ZM160.485 296.704C163.393 297.673 166.507 298.631 169.823 299.578L176.417 276.502C173.386 275.636 170.607 274.78 168.075 273.936L160.485 296.704ZM169.823 299.578C172.854 300.444 175.633 301.3 178.165 302.144L185.755 279.376C182.848 278.407 179.733 277.449 176.417 276.502L169.823 299.578ZM178.389 302.216C213.013 313.008 239.202 323.184 257.312 332.67L268.448 311.41C248.478 300.949 220.72 290.272 185.531 279.304L178.389 302.216ZM257.513 332.773C275.236 341.634 287.446 351.963 295.055 363.376L315.025 350.064C304.501 334.277 288.604 321.486 268.247 311.307L257.513 332.773ZM295.321 363.758C302.927 374.263 307.32 388.998 307.32 409.08H331.32C331.32 385.642 326.193 365.471 314.759 349.682L295.321 363.758ZM307.32 409.08C307.32 441.504 296.689 464.389 276.643 479.809L291.277 498.831C318.377 477.985 331.32 447.376 331.32 409.08H307.32ZM276.671 479.788C256.318 495.351 227.471 503.84 188.76 503.84V527.84C230.743 527.84 265.362 518.649 291.249 498.852L276.671 479.788ZM188.76 503.84C179.613 503.84 169.511 503.404 158.437 502.518L156.523 526.442C168.116 527.369 178.867 527.84 188.76 527.84V503.84ZM158.437 502.518C147.249 501.623 135.829 500.504 124.175 499.159L121.425 523.001C133.344 524.376 145.044 525.523 156.523 526.442L158.437 502.518ZM124.125 499.153C91.6014 495.54 68.7237 491.551 54.8801 487.356L47.9199 510.324C63.9963 515.196 88.7187 519.367 121.475 523.007L124.125 499.153ZM39.4 498.84V526.04H63.4V498.84H39.4ZM51.4 514.04H-5.72V538.04H51.4V514.04ZM6.28 526.04V371.68H-17.72V526.04H6.28ZM442.193 495.44L448.682 485.346L442.193 495.44ZM397.993 443.76L387.091 448.775L387.11 448.817L387.13 448.859L397.993 443.76ZM382.353 231.6H394.353V219.6H382.353V231.6ZM337.473 231.6H325.473V243.6H337.473V231.6ZM337.473 167V155H325.473V167H337.473ZM500.673 167H512.673V155H500.673V167ZM512.913 420.64L502.378 426.386L502.416 426.455L502.454 426.523L512.913 420.64ZM575.473 430.84L583.712 439.564L583.837 439.446L583.958 439.325L575.473 430.84ZM593.833 396.84L582.379 393.261L582.328 393.425L582.281 393.591L593.833 396.84ZM600.633 231.6H612.633V219.6H600.633V231.6ZM544.873 231.6H532.873V243.6H544.873V231.6ZM544.873 167V155H532.873V167H544.873ZM770.633 167H782.633V155H770.633V167ZM770.633 231.6V243.6H782.633V231.6H770.633ZM718.273 231.6V219.6H706.273V231.6H718.273ZM718.273 442.4H706.273V454.4H718.273V442.4ZM770.633 442.4H782.633V430.4H770.633V442.4ZM770.633 507V519H782.633V507H770.633ZM606.753 507H594.753V519H606.753V507ZM606.753 461.44H618.753V418.439L596.487 455.226L606.753 461.44ZM566.633 500.88L572.358 511.426L572.409 511.398L572.461 511.37L566.633 500.88ZM510.193 501.8C485.821 501.8 465.49 496.151 448.682 485.346L435.704 505.534C456.976 519.209 481.978 525.8 510.193 525.8V501.8ZM448.682 485.346C431.7 474.429 418.407 459.01 408.856 438.661L387.13 448.859C398.432 472.937 414.606 491.971 435.704 505.534L448.682 485.346ZM408.895 438.745C399.341 417.976 394.353 393.013 394.353 363.52H370.353C370.353 395.68 375.791 424.21 387.091 448.775L408.895 438.745ZM394.353 363.52V231.6H370.353V363.52H394.353ZM382.353 219.6H337.473V243.6H382.353V219.6ZM349.473 231.6V167H325.473V231.6H349.473ZM337.473 179H500.673V155H337.473V179ZM488.673 167V354.68H512.673V167H488.673ZM488.673 354.68C488.673 384.467 492.802 408.829 502.378 426.386L523.448 414.894C516.704 402.531 512.673 382.919 512.673 354.68H488.673ZM502.454 426.523C512.362 444.138 527.353 454.4 546.913 454.4V430.4C537.459 430.4 529.783 426.155 523.372 414.757L502.454 426.523ZM546.913 454.4C560.963 454.4 573.403 449.301 583.712 439.564L567.233 422.116C561.223 427.792 554.623 430.4 546.913 430.4V454.4ZM583.958 439.325C593.95 429.333 600.913 415.987 605.385 400.089L582.281 393.591C578.592 406.706 573.315 416.027 566.988 422.355L583.958 439.325ZM605.287 400.419C610.268 384.48 612.633 366.223 612.633 345.84H588.633C588.633 364.444 586.465 380.186 582.379 393.261L605.287 400.419ZM612.633 345.84V231.6H588.633V345.84H612.633ZM600.633 219.6H544.873V243.6H600.633V219.6ZM556.873 231.6V167H532.873V231.6H556.873ZM544.873 179H770.633V155H544.873V179ZM758.633 167V231.6H782.633V167H758.633ZM770.633 219.6H718.273V243.6H770.633V219.6ZM706.273 231.6V442.4H730.273V231.6H706.273ZM718.273 454.4H770.633V430.4H718.273V454.4ZM758.633 442.4V507H782.633V442.4H758.633ZM770.633 495H606.753V519H770.633V495ZM618.753 507V461.44H594.753V507H618.753ZM596.487 455.226C587.054 470.81 575.156 482.417 560.805 490.39L572.461 511.37C590.75 501.209 605.598 486.523 617.019 467.654L596.487 455.226ZM560.908 490.334C547.125 497.816 530.361 501.8 510.193 501.8V525.8C533.544 525.8 554.407 521.171 572.358 511.426L560.908 490.334ZM787.707 442.4V430.4H775.707V442.4H787.707ZM840.067 442.4V454.4H852.067V442.4H840.067ZM840.067 231.6H852.067V219.6H840.067V231.6ZM787.707 231.6H775.707V243.6H787.707V231.6ZM787.707 167V155H775.707V167H787.707ZM951.587 167H963.587V155H951.587V167ZM951.587 210.52H939.587V252.554L961.779 216.855L951.587 210.52ZM990.347 173.12L995.962 183.725L996.082 183.662L996.201 183.595L990.347 173.12ZM1105.95 176.52L1112.36 166.374L1105.95 176.52ZM1146.07 224.12L1135.15 229.103L1146.07 253.015L1156.98 229.104L1146.07 224.12ZM1186.19 176.52L1179.9 166.3L1179.84 166.337L1179.78 166.374L1186.19 176.52ZM1345.99 199.64L1336.98 207.564L1345.99 199.64ZM1380.67 442.4H1368.67V454.4H1380.67V442.4ZM1425.55 442.4H1437.55V430.4H1425.55V442.4ZM1425.55 507V519H1437.55V507H1425.55ZM1224.27 507H1212.27V519H1224.27V507ZM1224.27 442.4V430.4H1212.27V442.4H1224.27ZM1262.35 442.4V454.4H1274.35V442.4H1262.35ZM1250.79 253.36L1240.05 258.727L1240.12 258.859L1240.19 258.99L1250.79 253.36ZM1175.31 272.4L1163.88 268.728L1175.31 272.4ZM1169.19 442.4H1157.19V454.4H1169.19V442.4ZM1207.27 442.4H1219.27V430.4H1207.27V442.4ZM1207.27 507V519H1219.27V507H1207.27ZM1012.79 507H1000.79V519H1012.79V507ZM1012.79 442.4V430.4H1000.79V442.4H1012.79ZM1050.87 442.4V454.4H1062.87V442.4H1050.87ZM1039.31 253.36L1028.57 258.727L1028.64 258.859L1028.71 258.99L1039.31 253.36ZM981.507 243.84L989.992 252.325L990.114 252.204L990.231 252.079L981.507 243.84ZM963.827 277.16L952.275 273.911L963.827 277.16ZM957.707 442.4H945.707V454.4H957.707V442.4ZM995.787 442.4H1007.79V430.4H995.787V442.4ZM995.787 507V519H1007.79V507H995.787ZM787.707 507H775.707V519H787.707V507ZM787.707 454.4H840.067V430.4H787.707V454.4ZM852.067 442.4V231.6H828.067V442.4H852.067ZM840.067 219.6H787.707V243.6H840.067V219.6ZM799.707 231.6V167H775.707V231.6H799.707ZM787.707 179H951.587V155H787.707V179ZM939.587 167V210.52H963.587V167H939.587ZM961.779 216.855C971.236 201.642 982.663 190.766 995.962 183.725L984.733 162.515C967.205 171.794 952.792 185.852 941.396 204.185L961.779 216.855ZM996.201 183.595C1009.53 176.149 1025.57 172.2 1044.75 172.2V148.2C1022.22 148.2 1001.99 152.864 984.493 162.645L996.201 183.595ZM1044.75 172.2C1066.42 172.2 1084.52 177.178 1099.54 186.666L1112.36 166.374C1092.92 154.102 1070.23 148.2 1044.75 148.2V172.2ZM1099.54 186.666C1114.55 196.148 1126.47 210.098 1135.15 229.103L1156.98 219.137C1146.62 196.435 1131.79 178.652 1112.36 166.374L1099.54 186.666ZM1156.98 229.104C1165.66 210.098 1177.58 196.148 1192.6 186.666L1179.78 166.374C1160.34 178.652 1145.51 196.435 1135.15 219.136L1156.98 229.104ZM1192.48 186.74C1207.95 177.218 1226.77 172.2 1249.43 172.2V148.2C1223.13 148.2 1199.79 154.062 1179.9 166.3L1192.48 186.74ZM1249.43 172.2C1287.91 172.2 1316.55 184.329 1336.98 207.564L1355 191.716C1329.19 162.364 1293.45 148.2 1249.43 148.2V172.2ZM1336.98 207.564C1357.59 231.006 1368.67 264.549 1368.67 309.8H1392.67C1392.67 260.758 1380.63 220.861 1355 191.716L1336.98 207.564ZM1368.67 309.8V442.4H1392.67V309.8H1368.67ZM1380.67 454.4H1425.55V430.4H1380.67V454.4ZM1413.55 442.4V507H1437.55V442.4H1413.55ZM1425.55 495H1224.27V519H1425.55V495ZM1236.27 507V442.4H1212.27V507H1236.27ZM1224.27 454.4H1262.35V430.4H1224.27V454.4ZM1274.35 442.4V318.64H1250.35V442.4H1274.35ZM1274.35 318.64C1274.35 288.956 1270.47 264.834 1261.38 247.73L1240.19 258.99C1246.52 270.899 1250.35 290.298 1250.35 318.64H1274.35ZM1261.52 247.993C1257.24 239.43 1251.64 232.237 1244.38 227.189C1237.01 222.062 1228.57 219.6 1219.51 219.6V243.6C1224.04 243.6 1227.62 244.764 1230.67 246.891C1233.84 249.096 1237.08 252.783 1240.05 258.727L1261.52 247.993ZM1219.51 219.6C1206.28 219.6 1194.55 224.534 1184.76 233.742L1201.21 251.218C1206.84 245.919 1212.79 243.6 1219.51 243.6V219.6ZM1184.76 233.742C1175.24 242.702 1168.43 254.595 1163.88 268.728L1186.73 276.072C1190.35 264.818 1195.32 256.764 1201.21 251.218L1184.76 233.742ZM1163.88 268.728C1159.36 282.809 1157.19 298.357 1157.19 315.24H1181.19C1181.19 300.39 1183.1 287.378 1186.73 276.072L1163.88 268.728ZM1157.19 315.24V442.4H1181.19V315.24H1157.19ZM1169.19 454.4H1207.27V430.4H1169.19V454.4ZM1195.27 442.4V507H1219.27V442.4H1195.27ZM1207.27 495H1012.79V519H1207.27V495ZM1024.79 507V442.4H1000.79V507H1024.79ZM1012.79 454.4H1050.87V430.4H1012.79V454.4ZM1062.87 442.4V318.64H1038.87V442.4H1062.87ZM1062.87 318.64C1062.87 288.956 1058.99 264.834 1049.9 247.73L1028.71 258.99C1035.04 270.899 1038.87 290.298 1038.87 318.64H1062.87ZM1050.04 247.993C1045.76 239.43 1040.16 232.237 1032.9 227.189C1025.53 222.062 1017.09 219.6 1008.03 219.6V243.6C1012.56 243.6 1016.14 244.764 1019.19 246.891C1022.36 249.096 1025.6 252.783 1028.57 258.727L1050.04 247.993ZM1008.03 219.6C994.322 219.6 982.443 225.372 972.783 235.6L990.231 252.079C995.984 245.988 1001.79 243.6 1008.03 243.6V219.6ZM973.022 235.355C963.41 244.966 956.709 258.146 952.275 273.911L975.379 280.409C979.105 267.16 984.191 258.127 989.992 252.325L973.022 235.355ZM952.275 273.911C947.832 289.71 945.707 307.616 945.707 327.48H969.707C969.707 309.264 971.663 293.623 975.379 280.409L952.275 273.911ZM945.707 327.48V442.4H969.707V327.48H945.707ZM957.707 454.4H995.787V430.4H957.707V454.4ZM983.787 442.4V507H1007.79V442.4H983.787ZM995.787 495H787.707V519H995.787V495ZM799.707 507V442.4H775.707V507H799.707ZM1443.14 442.4V430.4H1431.14V442.4H1443.14ZM1495.5 442.4V454.4H1507.5V442.4H1495.5ZM1495.5 231.6H1507.5V219.6H1495.5V231.6ZM1443.14 231.6H1431.14V243.6H1443.14V231.6ZM1443.14 167V155H1431.14V167H1443.14ZM1607.02 167H1619.02V155H1607.02V167ZM1607.02 210.52H1595.02V252.554L1617.21 216.855L1607.02 210.52ZM1645.78 173.12L1651.39 183.725L1651.51 183.662L1651.63 183.595L1645.78 173.12ZM1761.38 176.52L1767.78 166.374L1761.38 176.52ZM1801.5 224.12L1790.58 229.103L1801.5 253.015L1812.41 229.104L1801.5 224.12ZM1841.62 176.52L1835.33 166.3L1835.27 166.337L1835.21 166.374L1841.62 176.52ZM2001.42 199.64L1992.41 207.564L2001.42 199.64ZM2036.1 442.4H2024.1V454.4H2036.1V442.4ZM2080.98 442.4H2092.98V430.4H2080.98V442.4ZM2080.98 507V519H2092.98V507H2080.98ZM1879.7 507H1867.7V519H1879.7V507ZM1879.7 442.4V430.4H1867.7V442.4H1879.7ZM1917.78 442.4V454.4H1929.78V442.4H1917.78ZM1906.22 253.36L1895.48 258.727L1895.55 258.859L1895.62 258.99L1906.22 253.36ZM1830.74 272.4L1819.31 268.728L1830.74 272.4ZM1824.62 442.4H1812.62V454.4H1824.62V442.4ZM1862.7 442.4H1874.7V430.4H1862.7V442.4ZM1862.7 507V519H1874.7V507H1862.7ZM1668.22 507H1656.22V519H1668.22V507ZM1668.22 442.4V430.4H1656.22V442.4H1668.22ZM1706.3 442.4V454.4H1718.3V442.4H1706.3ZM1694.74 253.36L1684 258.727L1684.07 258.859L1684.14 258.99L1694.74 253.36ZM1636.94 243.84L1645.42 252.325L1645.54 252.204L1645.66 252.079L1636.94 243.84ZM1619.26 277.16L1607.71 273.911L1619.26 277.16ZM1613.14 442.4H1601.14V454.4H1613.14V442.4ZM1651.22 442.4H1663.22V430.4H1651.22V442.4ZM1651.22 507V519H1663.22V507H1651.22ZM1443.14 507H1431.14V519H1443.14V507ZM1443.14 454.4H1495.5V430.4H1443.14V454.4ZM1507.5 442.4V231.6H1483.5V442.4H1507.5ZM1495.5 219.6H1443.14V243.6H1495.5V219.6ZM1455.14 231.6V167H1431.14V231.6H1455.14ZM1443.14 179H1607.02V155H1443.14V179ZM1595.02 167V210.52H1619.02V167H1595.02ZM1617.21 216.855C1626.67 201.642 1638.09 190.766 1651.39 183.725L1640.16 162.515C1622.63 171.794 1608.22 185.852 1596.83 204.185L1617.21 216.855ZM1651.63 183.595C1664.96 176.149 1681 172.2 1700.18 172.2V148.2C1677.65 148.2 1657.42 152.864 1639.92 162.645L1651.63 183.595ZM1700.18 172.2C1721.85 172.2 1739.95 177.178 1754.97 186.666L1767.78 166.374C1748.35 154.102 1725.66 148.2 1700.18 148.2V172.2ZM1754.97 186.666C1769.98 196.148 1781.9 210.098 1790.58 229.103L1812.41 219.137C1802.05 196.435 1787.22 178.652 1767.78 166.374L1754.97 186.666ZM1812.41 229.104C1821.09 210.098 1833.01 196.148 1848.02 186.666L1835.21 166.374C1815.77 178.652 1800.94 196.435 1790.58 219.136L1812.41 229.104ZM1847.91 186.74C1863.38 177.218 1882.19 172.2 1904.86 172.2V148.2C1878.56 148.2 1855.21 154.062 1835.33 166.3L1847.91 186.74ZM1904.86 172.2C1943.34 172.2 1971.97 184.329 1992.41 207.564L2010.43 191.716C1984.62 162.364 1948.88 148.2 1904.86 148.2V172.2ZM1992.41 207.564C2013.02 231.006 2024.1 264.549 2024.1 309.8H2048.1C2048.1 260.758 2036.06 220.861 2010.43 191.716L1992.41 207.564ZM2024.1 309.8V442.4H2048.1V309.8H2024.1ZM2036.1 454.4H2080.98V430.4H2036.1V454.4ZM2068.98 442.4V507H2092.98V442.4H2068.98ZM2080.98 495H1879.7V519H2080.98V495ZM1891.7 507V442.4H1867.7V507H1891.7ZM1879.7 454.4H1917.78V430.4H1879.7V454.4ZM1929.78 442.4V318.64H1905.78V442.4H1929.78ZM1929.78 318.64C1929.78 288.956 1925.9 264.834 1916.81 247.73L1895.62 258.99C1901.95 270.899 1905.78 290.298 1905.78 318.64H1929.78ZM1916.95 247.993C1912.67 239.43 1907.07 232.237 1899.81 227.189C1892.44 222.062 1884 219.6 1874.94 219.6V243.6C1879.47 243.6 1883.05 244.764 1886.1 246.891C1889.27 249.096 1892.51 252.783 1895.48 258.727L1916.95 247.993ZM1874.94 219.6C1861.71 219.6 1849.98 224.534 1840.19 233.742L1856.64 251.218C1862.27 245.919 1868.22 243.6 1874.94 243.6V219.6ZM1840.19 233.742C1830.67 242.702 1823.86 254.595 1819.31 268.728L1842.16 276.072C1845.78 264.818 1850.75 256.764 1856.64 251.218L1840.19 233.742ZM1819.31 268.728C1814.79 282.809 1812.62 298.357 1812.62 315.24H1836.62C1836.62 300.39 1838.53 287.378 1842.16 276.072L1819.31 268.728ZM1812.62 315.24V442.4H1836.62V315.24H1812.62ZM1824.62 454.4H1862.7V430.4H1824.62V454.4ZM1850.7 442.4V507H1874.7V442.4H1850.7ZM1862.7 495H1668.22V519H1862.7V495ZM1680.22 507V442.4H1656.22V507H1680.22ZM1668.22 454.4H1706.3V430.4H1668.22V454.4ZM1718.3 442.4V318.64H1694.3V442.4H1718.3ZM1718.3 318.64C1718.3 288.956 1714.42 264.834 1705.33 247.73L1684.14 258.99C1690.47 270.899 1694.3 290.298 1694.3 318.64H1718.3ZM1705.47 247.993C1701.19 239.43 1695.59 232.237 1688.33 227.189C1680.96 222.062 1672.52 219.6 1663.46 219.6V243.6C1667.99 243.6 1671.57 244.764 1674.62 246.891C1677.79 249.096 1681.03 252.783 1684 258.727L1705.47 247.993ZM1663.46 219.6C1649.75 219.6 1637.87 225.372 1628.21 235.6L1645.66 252.079C1651.41 245.988 1657.21 243.6 1663.46 243.6V219.6ZM1628.45 235.355C1618.84 244.966 1612.14 258.146 1607.71 273.911L1630.81 280.409C1634.53 267.16 1639.62 258.127 1645.42 252.325L1628.45 235.355ZM1607.71 273.911C1603.26 289.71 1601.14 307.616 1601.14 327.48H1625.14C1625.14 309.264 1627.09 293.623 1630.81 280.409L1607.71 273.911ZM1601.14 327.48V442.4H1625.14V327.48H1601.14ZM1613.14 454.4H1651.22V430.4H1613.14V454.4ZM1639.22 442.4V507H1663.22V442.4H1639.22ZM1651.22 495H1443.14V519H1651.22V495ZM1455.14 507V442.4H1431.14V507H1455.14ZM2098.57 442.4V430.4H2086.57V442.4H2098.57ZM2150.93 442.4V454.4H2162.93V442.4H2150.93ZM2150.93 231.6H2162.93V219.6H2150.93V231.6ZM2098.57 231.6H2086.57V243.6H2098.57V231.6ZM2098.57 167V155H2086.57V167H2098.57ZM2268.57 167H2280.57V155H2268.57V167ZM2268.57 442.4H2256.57V454.4H2268.57V442.4ZM2320.93 442.4H2332.93V430.4H2320.93V442.4ZM2320.93 507V519H2332.93V507H2320.93ZM2098.57 507H2086.57V519H2098.57V507ZM2124.41 0.399956V-11.6H2104.11L2113.89 6.18298L2124.41 0.399956ZM2280.81 0.399956L2291.32 6.18298L2301.1 -11.6H2280.81V0.399956ZM2206.01 136.4V148.4H2213.1L2216.52 142.183L2206.01 136.4ZM2199.21 136.4L2188.69 142.183L2192.11 148.4H2199.21V136.4ZM2098.57 454.4H2150.93V430.4H2098.57V454.4ZM2162.93 442.4V231.6H2138.93V442.4H2162.93ZM2150.93 219.6H2098.57V243.6H2150.93V219.6ZM2110.57 231.6V167H2086.57V231.6H2110.57ZM2098.57 179H2268.57V155H2098.57V179ZM2256.57 167V442.4H2280.57V167H2256.57ZM2268.57 454.4H2320.93V430.4H2268.57V454.4ZM2308.93 442.4V507H2332.93V442.4H2308.93ZM2320.93 495H2098.57V519H2320.93V495ZM2110.57 507V442.4H2086.57V507H2110.57ZM2124.41 12.4H2280.81V-11.6H2124.41V12.4ZM2270.29 -5.38307L2195.49 130.617L2216.52 142.183L2291.32 6.18298L2270.29 -5.38307ZM2206.01 124.4H2199.21V148.4H2206.01V124.4ZM2209.72 130.617L2134.92 -5.38307L2113.89 6.18298L2188.69 142.183L2209.72 130.617ZM2416.49 481.84L2408.11 490.424L2408.16 490.473L2408.21 490.52L2416.49 481.84ZM2387.25 231.6H2399.25V219.6H2387.25V231.6ZM2331.49 231.6H2319.49V243.6H2331.49V231.6ZM2331.49 167V155H2319.49V167H2331.49ZM2423.29 145.24L2431.39 154.096L2423.29 145.24ZM2447.09 65V53H2435.09V65H2447.09ZM2504.89 65H2516.89V53H2504.89V65ZM2504.89 167H2492.89V179H2504.89V167ZM2601.45 167H2613.45V155H2601.45V167ZM2601.45 231.6V243.6H2613.45V231.6H2601.45ZM2504.89 231.6V219.6H2492.89V231.6H2504.89ZM2515.09 430.84L2506.09 438.779L2506.34 439.06L2506.61 439.325L2515.09 430.84ZM2576.97 438.32L2579.33 450.087L2579.5 450.052L2579.67 450.013L2576.97 438.32ZM2606.89 429.48H2618.89V411.938L2602.54 418.296L2606.89 429.48ZM2606.89 496.12L2610.24 507.644L2618.89 505.132V496.12H2606.89ZM2557.93 506.32L2556.2 494.446L2556.17 494.45L2556.15 494.453L2557.93 506.32ZM2499.45 498.4C2466.27 498.4 2441.91 489.516 2424.78 473.16L2408.21 490.52C2430.97 512.244 2461.91 522.4 2499.45 522.4V498.4ZM2424.88 473.255C2408.27 457.034 2399.25 433.724 2399.25 401.6H2375.25C2375.25 438.383 2385.73 468.565 2408.11 490.424L2424.88 473.255ZM2399.25 401.6V231.6H2375.25V401.6H2399.25ZM2387.25 219.6H2331.49V243.6H2387.25V219.6ZM2343.49 231.6V167H2319.49V231.6H2343.49ZM2331.49 179H2361.41V155H2331.49V179ZM2361.41 179C2389.22 179 2412.92 170.982 2431.39 154.096L2415.2 136.384C2401.93 148.511 2384.38 155 2361.41 155V179ZM2431.39 154.096C2450.52 136.602 2459.09 111.114 2459.09 79.96H2435.09C2435.09 106.833 2427.79 124.865 2415.2 136.384L2431.39 154.096ZM2459.09 79.96V65H2435.09V79.96H2459.09ZM2447.09 77H2504.89V53H2447.09V77ZM2492.89 65V167H2516.89V65H2492.89ZM2504.89 179H2601.45V155H2504.89V179ZM2589.45 167V231.6H2613.45V167H2589.45ZM2601.45 219.6H2504.89V243.6H2601.45V219.6ZM2492.89 231.6V398.2H2516.89V231.6H2492.89ZM2492.89 398.2C2492.89 414.098 2496.75 428.187 2506.09 438.779L2524.09 422.901C2519.84 418.079 2516.89 410.409 2516.89 398.2H2492.89ZM2506.61 439.325C2516.62 449.338 2529.94 453.72 2545.01 453.72V429.72C2534.7 429.72 2528.07 426.848 2523.58 422.355L2506.61 439.325ZM2545.01 453.72C2555.89 453.72 2567.34 452.485 2579.33 450.087L2574.62 426.553C2563.94 428.689 2554.08 429.72 2545.01 429.72V453.72ZM2579.67 450.013C2591.82 447.208 2602.39 444.108 2611.24 440.664L2602.54 418.296C2595.08 421.198 2585.69 423.992 2574.27 426.627L2579.67 450.013ZM2594.89 429.48V496.12H2618.89V429.48H2594.89ZM2603.55 484.596C2590.14 488.487 2574.38 491.785 2556.2 494.446L2559.67 518.194C2578.66 515.415 2595.53 511.913 2610.24 507.644L2603.55 484.596ZM2556.15 494.453C2538.68 497.073 2519.79 498.4 2499.45 498.4V522.4C2520.82 522.4 2540.92 521.007 2559.71 518.187L2556.15 494.453Z" fill="white" mask="url(#path-1-inside-1_3553_7462)"/>
</svg>
