<svg width="3200" height="623" viewBox="0 0 3200 623" fill="none" xmlns="http://www.w3.org/2000/svg">
<mask id="path-1-inside-1_3720_10094" fill="white">
<path d="M-3.444 456.636H60.928V463.324C63.7147 478.372 74.8613 493.977 94.368 510.14C113.875 525.745 137.561 538.843 165.428 549.432C193.852 560.021 221.44 565.316 248.192 565.316C262.125 565.316 273.272 563.087 281.632 558.628C290.549 553.612 295.008 546.924 295.008 538.564C295.008 532.433 292.5 527.139 287.484 522.68C283.025 518.221 274.108 513.484 260.732 508.468C247.913 503.452 227.849 497.043 200.54 489.24C155.396 477.536 118.333 464.996 89.352 451.62C60.928 437.687 39.192 420.688 24.144 400.624C9.096 380.56 1.572 355.201 1.572 324.548C1.572 283.305 16.0627 251.816 45.044 230.08C74.5827 207.787 113.317 196.64 161.248 196.64C179.64 196.64 196.081 197.755 210.572 199.984C225.063 201.656 240.389 204.443 256.552 208.344C269.371 211.131 282.189 214.196 295.008 217.54V178.248H366.068V364.676H300.024V359.66C297.795 345.727 287.205 331.515 268.256 317.024C249.307 302.533 227.013 290.551 201.376 281.076C176.296 271.601 154.839 266.864 137.004 266.864C126.415 266.864 117.776 269.093 111.088 273.552C104.4 278.011 101.056 283.863 101.056 291.108C101.056 301.14 105.793 309.5 115.268 316.188C124.743 322.319 142.299 329.843 167.936 338.76C173.509 340.432 179.361 342.383 185.492 344.612C192.18 346.284 198.868 348.235 205.556 350.464C208.9 351.579 212.523 352.693 216.424 353.808C220.325 354.923 223.948 356.037 227.292 357.152C270.207 370.528 303.368 383.347 326.776 395.608C350.184 407.312 367.461 421.524 378.608 438.244C390.312 454.407 396.164 475.864 396.164 502.616C396.164 546.088 381.673 578.971 352.692 601.264C324.268 623 285.255 633.868 235.652 633.868C223.948 633.868 211.129 633.311 197.196 632.196C183.263 631.081 169.051 629.688 154.56 628.016C114.432 623.557 85.172 618.541 66.78 612.968V646.408H-3.444V456.636ZM630.825 631.36C598.5 631.36 570.633 623.836 547.225 608.788C523.817 593.74 505.704 572.561 492.885 545.252C480.067 517.385 473.657 484.503 473.657 446.604V284.42H418.481V205H619.121V435.736C619.121 471.405 624.137 498.436 634.169 516.828C644.201 534.663 658.135 543.58 675.969 543.58C689.345 543.58 701.049 538.843 711.081 529.368C721.113 519.336 728.637 505.403 733.653 487.568C739.227 469.733 742.013 448.833 742.013 424.868V284.42H673.461V205H951.013V284.42H886.641V543.58H951.013V623H749.537V566.988C736.719 588.167 720.277 604.329 700.213 615.476C680.707 626.065 657.577 631.36 630.825 631.36ZM972.005 543.58H1036.38V284.42H972.005V205H1173.48V258.504C1186.3 237.883 1202.18 222.556 1221.13 212.524C1240.08 201.935 1262.38 196.64 1288.01 196.64C1316.99 196.64 1342.07 203.328 1363.25 216.704C1384.43 230.08 1400.87 249.587 1412.58 275.224C1424.28 249.587 1440.72 230.08 1461.9 216.704C1483.64 203.328 1509.55 196.64 1539.65 196.64C1590.37 196.64 1629.94 212.803 1658.36 245.128C1686.78 277.453 1701 322.597 1701 380.56V543.58H1756.17V623H1508.72V543.58H1555.53V391.428C1555.53 355.759 1550.8 329.007 1541.32 311.172C1532.4 293.337 1519.58 284.42 1502.86 284.42C1490.6 284.42 1479.74 288.879 1470.26 297.796C1460.79 306.713 1453.54 318.975 1448.52 334.58C1443.51 350.185 1441 367.741 1441 387.248V543.58H1487.82V623H1248.72V543.58H1295.54V391.428C1295.54 355.759 1290.8 329.007 1281.32 311.172C1272.41 293.337 1259.59 284.42 1242.87 284.42C1230.61 284.42 1219.74 289.436 1210.26 299.468C1200.79 308.943 1193.54 322.597 1188.53 340.432C1183.51 358.267 1181 378.888 1181 402.296V543.58H1227.82V623H972.005V543.58ZM1777.8 543.58H1842.17V284.42H1777.8V205H1979.27V258.504C1992.09 237.883 2007.98 222.556 2026.93 212.524C2045.88 201.935 2068.17 196.64 2093.81 196.64C2122.79 196.64 2147.87 203.328 2169.05 216.704C2190.22 230.08 2206.67 249.587 2218.37 275.224C2230.07 249.587 2246.52 230.08 2267.69 216.704C2289.43 203.328 2315.35 196.64 2345.44 196.64C2396.16 196.64 2435.73 212.803 2464.15 245.128C2492.58 277.453 2506.79 322.597 2506.79 380.56V543.58H2561.97V623H2314.51V543.58H2361.33V391.428C2361.33 355.759 2356.59 329.007 2347.11 311.172C2338.2 293.337 2325.38 284.42 2308.66 284.42C2296.4 284.42 2285.53 288.879 2276.05 297.796C2266.58 306.713 2259.33 318.975 2254.32 334.58C2249.3 350.185 2246.79 367.741 2246.79 387.248V543.58H2293.61V623H2054.51V543.58H2101.33V391.428C2101.33 355.759 2096.59 329.007 2087.12 311.172C2078.2 293.337 2065.38 284.42 2048.66 284.42C2036.4 284.42 2025.53 289.436 2016.06 299.468C2006.58 308.943 1999.34 322.597 1994.32 340.432C1989.31 358.267 1986.8 378.888 1986.8 402.296V543.58H2033.61V623H1777.8V543.58ZM2583.59 543.58H2647.96V284.42H2583.59V205H2792.59V543.58H2856.96V623H2583.59V543.58ZM2615.36 0.179946H2807.64L2715.68 167.38H2707.32L2615.36 0.179946ZM3076.45 627.18C3032.97 627.18 2998.98 615.476 2974.45 592.068C2950.49 568.66 2938.51 535.777 2938.51 493.42V284.42H2869.95V205H2906.74C2937.95 205 2963.31 196.083 2982.81 178.248C3002.32 160.413 3012.07 133.661 3012.07 97.992V79.6H3083.13V205H3201.85V284.42H3083.13V489.24C3083.13 506.517 3087.31 519.893 3095.67 529.368C3104.59 538.285 3116.85 542.744 3132.46 542.744C3144.72 542.744 3157.82 541.351 3171.75 538.564C3186.24 535.22 3198.5 531.597 3208.53 527.696V609.624C3191.26 614.64 3171.19 618.82 3148.34 622.164C3126.05 625.508 3102.08 627.18 3076.45 627.18Z"/>
</mask>
<path d="M-3.444 456.636V450.636H-9.444V456.636H-3.444ZM60.928 456.636H66.928V450.636H60.928V456.636ZM60.928 463.324H54.928V463.875L55.0283 464.417L60.928 463.324ZM94.368 510.14L90.5399 514.76L90.5796 514.793L90.6198 514.825L94.368 510.14ZM165.428 549.432L163.297 555.041L163.315 555.048L163.333 555.055L165.428 549.432ZM281.632 558.628L284.456 563.922L284.515 563.89L284.574 563.857L281.632 558.628ZM287.484 522.68L283.241 526.923L283.366 527.047L283.498 527.164L287.484 522.68ZM260.732 508.468L258.546 514.055L258.585 514.071L258.625 514.086L260.732 508.468ZM200.54 489.24L202.188 483.471L202.117 483.451L202.046 483.432L200.54 489.24ZM89.352 451.62L86.7111 457.008L86.774 457.038L86.8377 457.068L89.352 451.62ZM24.144 400.624L19.344 404.224L24.144 400.624ZM45.044 230.08L48.644 234.88L48.6512 234.875L48.6584 234.869L45.044 230.08ZM210.572 199.984L209.66 205.914L209.772 205.931L209.884 205.944L210.572 199.984ZM256.552 208.344L255.144 214.176L255.211 214.193L255.277 214.207L256.552 208.344ZM295.008 217.54L293.493 223.346L301.008 225.306V217.54H295.008ZM295.008 178.248V172.248H289.008V178.248H295.008ZM366.068 178.248H372.068V172.248H366.068V178.248ZM366.068 364.676V370.676H372.068V364.676H366.068ZM300.024 364.676H294.024V370.676H300.024V364.676ZM300.024 359.66H306.024V359.183L305.949 358.712L300.024 359.66ZM268.256 317.024L271.901 312.258L268.256 317.024ZM201.376 281.076L199.256 286.689L199.276 286.696L199.296 286.704L201.376 281.076ZM111.088 273.552L114.416 278.544H114.416L111.088 273.552ZM115.268 316.188L111.808 321.09L111.907 321.16L112.008 321.225L115.268 316.188ZM167.936 338.76L165.965 344.427L166.088 344.47L166.212 344.507L167.936 338.76ZM185.492 344.612L183.442 350.251L183.734 350.357L184.037 350.433L185.492 344.612ZM205.556 350.464L207.453 344.772L207.453 344.772L205.556 350.464ZM216.424 353.808L218.072 348.039L218.072 348.039L216.424 353.808ZM227.292 357.152L225.395 362.844L225.45 362.863L225.507 362.88L227.292 357.152ZM326.776 395.608L323.992 400.923L324.042 400.949L324.093 400.975L326.776 395.608ZM378.608 438.244L373.616 441.572L373.68 441.669L373.748 441.763L378.608 438.244ZM352.692 601.264L356.337 606.03L356.344 606.025L356.35 606.02L352.692 601.264ZM197.196 632.196L196.718 638.177L197.196 632.196ZM154.56 628.016L155.248 622.056L155.235 622.054L155.223 622.053L154.56 628.016ZM66.78 612.968L68.5201 607.226L60.78 604.88V612.968H66.78ZM66.78 646.408V652.408H72.78V646.408H66.78ZM-3.444 646.408H-9.444V652.408H-3.444V646.408ZM-3.444 462.636H60.928V450.636H-3.444V462.636ZM54.928 456.636V463.324H66.928V456.636H54.928ZM55.0283 464.417C58.1921 481.501 70.6068 498.244 90.5399 514.76L98.1961 505.52C79.1159 489.711 69.2373 475.243 66.8277 462.231L55.0283 464.417ZM90.6198 514.825C110.698 530.888 134.956 544.271 163.297 555.041L167.559 543.823C140.167 533.414 117.052 520.603 98.1162 505.455L90.6198 514.825ZM163.333 555.055C192.339 565.86 220.636 571.316 248.192 571.316V559.316C222.244 559.316 195.365 554.182 167.523 543.81L163.333 555.055ZM248.192 571.316C262.681 571.316 274.913 569.011 284.456 563.922L278.809 553.334C271.631 557.162 261.57 559.316 248.192 559.316V571.316ZM284.574 563.857C294.882 558.059 301.008 549.609 301.008 538.564H289.008C289.008 544.239 286.217 549.165 278.69 553.399L284.574 563.857ZM301.008 538.564C301.008 530.546 297.631 523.672 291.47 518.196L283.498 527.164C287.369 530.605 289.008 534.321 289.008 538.564H301.008ZM291.727 518.437C286.272 512.983 276.252 507.88 262.839 502.85L258.625 514.086C271.964 519.088 279.779 523.46 283.241 526.923L291.727 518.437ZM262.918 502.881C249.822 497.756 229.531 491.283 202.188 483.471L198.892 495.009C226.167 502.802 246.005 509.148 258.546 514.055L262.918 502.881ZM202.046 483.432C157.105 471.781 120.412 459.347 91.8663 446.172L86.8377 457.068C116.255 470.645 153.687 483.291 199.034 495.048L202.046 483.432ZM91.9929 446.232C64.2021 432.61 43.2941 416.157 28.944 397.024L19.344 404.224C35.0899 425.219 57.6539 442.764 86.7111 457.008L91.9929 446.232ZM28.944 397.024C14.8351 378.212 7.572 354.198 7.572 324.548H-4.428C-4.428 356.205 3.35693 382.908 19.344 404.224L28.944 397.024ZM7.572 324.548C7.572 284.895 21.3975 255.315 48.644 234.88L41.444 225.28C10.7278 248.317 -4.428 281.716 -4.428 324.548H7.572ZM48.6584 234.869C76.8847 213.566 114.235 202.64 161.248 202.64V190.64C112.399 190.64 72.2806 202.007 41.4296 225.291L48.6584 234.869ZM161.248 202.64C179.408 202.64 195.535 203.741 209.66 205.914L211.484 194.054C196.627 191.768 179.872 190.64 161.248 190.64V202.64ZM209.884 205.944C224.102 207.585 239.187 210.325 255.144 214.176L257.96 202.511C241.592 198.561 226.024 195.727 211.26 194.024L209.884 205.944ZM255.277 214.207C268.015 216.976 280.754 220.022 293.493 223.346L296.523 211.734C283.625 208.37 270.726 205.285 257.827 202.481L255.277 214.207ZM301.008 217.54V178.248H289.008V217.54H301.008ZM295.008 184.248H366.068V172.248H295.008V184.248ZM360.068 178.248V364.676H372.068V178.248H360.068ZM366.068 358.676H300.024V370.676H366.068V358.676ZM306.024 364.676V359.66H294.024V364.676H306.024ZM305.949 358.712C303.356 342.505 291.285 327.081 271.901 312.258L264.611 321.79C283.126 335.948 292.234 348.948 294.099 360.608L305.949 358.712ZM271.901 312.258C252.412 297.355 229.575 285.101 203.456 275.448L199.296 286.704C224.452 296.001 246.201 307.712 264.611 321.79L271.901 312.258ZM203.496 275.463C178.046 265.849 155.831 260.864 137.004 260.864V272.864C153.846 272.864 174.546 277.354 199.256 286.689L203.496 275.463ZM137.004 260.864C125.6 260.864 115.702 263.265 107.76 268.56L114.416 278.544C119.85 274.922 127.229 272.864 137.004 272.864V260.864ZM107.76 268.56C99.6175 273.988 95.056 281.611 95.056 291.108H107.056C107.056 286.114 109.182 282.033 114.416 278.544L107.76 268.56ZM95.056 291.108C95.056 303.415 101.026 313.479 111.808 321.09L118.728 311.286C110.56 305.521 107.056 298.865 107.056 291.108H95.056ZM112.008 321.225C122.152 327.789 140.33 335.51 165.965 344.427L169.907 333.093C144.267 324.175 127.333 316.848 118.528 311.151L112.008 321.225ZM166.212 344.507C171.663 346.142 177.406 348.056 183.442 350.251L187.542 338.973C181.317 336.709 175.355 334.722 169.66 333.013L166.212 344.507ZM184.037 350.433C190.572 352.067 197.113 353.974 203.659 356.156L207.453 344.772C200.623 342.495 193.788 340.501 186.947 338.791L184.037 350.433ZM203.659 356.156C207.096 357.302 210.803 358.442 214.776 359.577L218.072 348.039C214.242 346.945 210.704 345.855 207.453 344.772L203.659 356.156ZM214.776 359.577C218.606 360.671 222.144 361.761 225.395 362.844L229.189 351.46C225.752 350.314 222.045 349.174 218.072 348.039L214.776 359.577ZM225.507 362.88C268.28 376.212 301.049 388.905 323.992 400.923L329.56 390.293C305.687 377.788 272.133 364.844 229.077 351.424L225.507 362.88ZM324.093 400.975C346.842 412.349 363.198 425.945 373.616 441.572L383.6 434.916C371.725 417.103 353.526 402.275 329.459 390.241L324.093 400.975ZM373.748 441.763C384.496 456.605 390.164 476.703 390.164 502.616H402.164C402.164 475.025 396.128 452.209 383.468 434.725L373.748 441.763ZM390.164 502.616C390.164 544.62 376.251 575.572 349.034 596.508L356.35 606.02C387.095 582.37 402.164 547.556 402.164 502.616H390.164ZM349.047 596.498C322.007 617.176 284.437 627.868 235.652 627.868V639.868C286.073 639.868 326.529 628.824 356.337 606.03L349.047 596.498ZM235.652 627.868C224.135 627.868 211.478 627.319 197.674 626.215L196.718 638.177C210.781 639.302 223.761 639.868 235.652 639.868V627.868ZM197.674 626.215C183.814 625.106 169.672 623.72 155.248 622.056L153.872 633.976C168.43 635.656 182.711 637.056 196.718 638.177L197.674 626.215ZM155.223 622.053C115.153 617.6 86.3539 612.63 68.5201 607.226L65.04 618.71C83.9901 624.453 113.711 629.514 153.897 633.979L155.223 622.053ZM60.78 612.968V646.408H72.78V612.968H60.78ZM66.78 640.408H-3.444V652.408H66.78V640.408ZM2.556 646.408V456.636H-9.444V646.408H2.556ZM547.225 608.788L550.47 603.741L547.225 608.788ZM492.885 545.252L487.434 547.759L487.444 547.78L487.454 547.801L492.885 545.252ZM473.657 284.42H479.657V278.42H473.657V284.42ZM418.481 284.42H412.481V290.42H418.481V284.42ZM418.481 205V199H412.481V205H418.481ZM619.121 205H625.121V199H619.121V205ZM634.169 516.828L628.902 519.701L628.921 519.735L628.94 519.77L634.169 516.828ZM711.081 529.368L715.201 533.73L715.263 533.671L715.324 533.611L711.081 529.368ZM733.653 487.568L727.926 485.778L727.901 485.861L727.877 485.944L733.653 487.568ZM742.013 284.42H748.013V278.42H742.013V284.42ZM673.461 284.42H667.461V290.42H673.461V284.42ZM673.461 205V199H667.461V205H673.461ZM951.013 205H957.013V199H951.013V205ZM951.013 284.42V290.42H957.013V284.42H951.013ZM886.641 284.42V278.42H880.641V284.42H886.641ZM886.641 543.58H880.641V549.58H886.641V543.58ZM951.013 543.58H957.013V537.58H951.013V543.58ZM951.013 623V629H957.013V623H951.013ZM749.537 623H743.537V629H749.537V623ZM749.537 566.988H755.537V545.488L744.404 563.881L749.537 566.988ZM700.213 615.476L703.076 620.749L703.102 620.735L703.127 620.721L700.213 615.476ZM630.825 625.36C599.461 625.36 572.762 618.071 550.47 603.741L543.981 613.835C568.505 629.601 597.539 637.36 630.825 637.36V625.36ZM550.47 603.741C528.091 589.354 510.698 569.08 498.317 542.703L487.454 547.801C500.71 576.043 519.544 598.126 543.981 613.835L550.47 603.741ZM498.336 542.745C485.954 515.827 479.657 483.836 479.657 446.604H467.657C467.657 485.169 474.179 518.944 487.434 547.759L498.336 542.745ZM479.657 446.604V284.42H467.657V446.604H479.657ZM473.657 278.42H418.481V290.42H473.657V278.42ZM424.481 284.42V205H412.481V284.42H424.481ZM418.481 211H619.121V199H418.481V211ZM613.121 205V435.736H625.121V205H613.121ZM613.121 435.736C613.121 471.792 618.162 500.011 628.902 519.701L639.437 513.955C630.113 496.861 625.121 471.018 625.121 435.736H613.121ZM628.94 519.77C639.846 539.159 655.608 549.58 675.969 549.58V537.58C660.661 537.58 648.556 530.167 639.399 513.886L628.94 519.77ZM675.969 549.58C690.93 549.58 704.094 544.22 715.201 533.73L706.962 525.006C698.004 533.466 687.76 537.58 675.969 537.58V549.58ZM715.324 533.611C726.272 522.663 734.218 507.723 739.429 489.192L727.877 485.944C723.057 503.083 715.955 516.009 706.839 525.125L715.324 533.611ZM739.38 489.358C745.177 470.807 748.013 449.278 748.013 424.868H736.013C736.013 448.389 733.276 468.66 727.926 485.778L739.38 489.358ZM748.013 424.868V284.42H736.013V424.868H748.013ZM742.013 278.42H673.461V290.42H742.013V278.42ZM679.461 284.42V205H667.461V284.42H679.461ZM673.461 211H951.013V199H673.461V211ZM945.013 205V284.42H957.013V205H945.013ZM951.013 278.42H886.641V290.42H951.013V278.42ZM880.641 284.42V543.58H892.641V284.42H880.641ZM886.641 549.58H951.013V537.58H886.641V549.58ZM945.013 543.58V623H957.013V543.58H945.013ZM951.013 617H749.537V629H951.013V617ZM755.537 623V566.988H743.537V623H755.537ZM744.404 563.881C732.083 584.239 716.379 599.631 697.299 610.231L703.127 620.721C724.176 609.027 741.355 592.095 754.67 570.095L744.404 563.881ZM697.351 610.203C678.886 620.227 656.782 625.36 630.825 625.36V637.36C658.373 637.36 682.527 631.904 703.076 620.749L697.351 610.203ZM972.005 543.58V537.58H966.005V543.58H972.005ZM1036.38 543.58V549.58H1042.38V543.58H1036.38ZM1036.38 284.42H1042.38V278.42H1036.38V284.42ZM972.005 284.42H966.005V290.42H972.005V284.42ZM972.005 205V199H966.005V205H972.005ZM1173.48 205H1179.48V199H1173.48V205ZM1173.48 258.504H1167.48V279.521L1178.58 261.672L1173.48 258.504ZM1221.13 212.524L1223.94 217.827L1224 217.795L1224.06 217.762L1221.13 212.524ZM1363.25 216.704L1366.46 211.631L1363.25 216.704ZM1412.58 275.224L1407.12 277.716L1412.58 289.672L1418.03 277.716L1412.58 275.224ZM1461.9 216.704L1458.76 211.594L1458.73 211.612L1458.7 211.631L1461.9 216.704ZM1658.36 245.128L1653.85 249.09L1658.36 245.128ZM1701 543.58H1695V549.58H1701V543.58ZM1756.17 543.58H1762.17V537.58H1756.17V543.58ZM1756.17 623V629H1762.17V623H1756.17ZM1508.72 623H1502.72V629H1508.72V623ZM1508.72 543.58V537.58H1502.72V543.58H1508.72ZM1555.53 543.58V549.58H1561.53V543.58H1555.53ZM1541.32 311.172L1535.95 313.855L1535.99 313.922L1536.02 313.987L1541.32 311.172ZM1448.52 334.58L1442.81 332.744L1448.52 334.58ZM1441 543.58H1435V549.58H1441V543.58ZM1487.82 543.58H1493.82V537.58H1487.82V543.58ZM1487.82 623V629H1493.82V623H1487.82ZM1248.72 623H1242.72V629H1248.72V623ZM1248.72 543.58V537.58H1242.72V543.58H1248.72ZM1295.54 543.58V549.58H1301.54V543.58H1295.54ZM1281.32 311.172L1275.96 313.855L1275.99 313.922L1276.03 313.987L1281.32 311.172ZM1210.26 299.468L1214.51 303.711L1214.57 303.65L1214.63 303.588L1210.26 299.468ZM1188.53 340.432L1182.75 338.807L1188.53 340.432ZM1181 543.58H1175V549.58H1181V543.58ZM1227.82 543.58H1233.82V537.58H1227.82V543.58ZM1227.82 623V629H1233.82V623H1227.82ZM972.005 623H966.005V629H972.005V623ZM972.005 549.58H1036.38V537.58H972.005V549.58ZM1042.38 543.58V284.42H1030.38V543.58H1042.38ZM1036.38 278.42H972.005V290.42H1036.38V278.42ZM978.005 284.42V205H966.005V284.42H978.005ZM972.005 211H1173.48V199H972.005V211ZM1167.48 205V258.504H1179.48V205H1167.48ZM1178.58 261.672C1190.91 241.83 1206.05 227.299 1223.94 217.827L1218.33 207.221C1198.32 217.813 1181.69 233.935 1168.39 255.336L1178.58 261.672ZM1224.06 217.762C1241.96 207.756 1263.21 202.64 1288.01 202.64V190.64C1261.54 190.64 1238.2 196.114 1218.21 207.286L1224.06 217.762ZM1288.01 202.64C1316.04 202.64 1339.97 209.097 1360.05 221.777L1366.46 211.631C1344.18 197.559 1317.95 190.64 1288.01 190.64V202.64ZM1360.05 221.777C1380.12 234.454 1395.84 253.003 1407.12 277.716L1418.03 272.732C1405.91 246.171 1388.74 225.706 1366.46 211.631L1360.05 221.777ZM1418.03 277.716C1429.32 253.003 1445.03 234.454 1465.1 221.777L1458.7 211.631C1436.41 225.706 1419.24 246.171 1407.12 272.732L1418.03 277.716ZM1465.05 221.814C1485.68 209.117 1510.46 202.64 1539.65 202.64V190.64C1508.64 190.64 1481.6 197.539 1458.76 211.594L1465.05 221.814ZM1539.65 202.64C1588.98 202.64 1626.78 218.294 1653.85 249.09L1662.87 241.166C1633.1 207.311 1591.75 190.64 1539.65 190.64V202.64ZM1653.85 249.09C1681.03 279.989 1695 323.545 1695 380.56H1707C1707 321.65 1692.54 274.917 1662.87 241.166L1653.85 249.09ZM1695 380.56V543.58H1707V380.56H1695ZM1701 549.58H1756.17V537.58H1701V549.58ZM1750.17 543.58V623H1762.17V543.58H1750.17ZM1756.17 617H1508.72V629H1756.17V617ZM1514.72 623V543.58H1502.72V623H1514.72ZM1508.72 549.58H1555.53V537.58H1508.72V549.58ZM1561.53 543.58V391.428H1549.53V543.58H1561.53ZM1561.53 391.428C1561.53 355.423 1556.78 327.49 1546.62 308.357L1536.02 313.987C1544.81 330.523 1549.53 356.094 1549.53 391.428H1561.53ZM1546.69 308.489C1541.9 298.916 1535.88 291.352 1528.45 286.183C1520.96 280.974 1512.36 278.42 1502.86 278.42V290.42C1510.09 290.42 1516.26 292.325 1521.59 296.033C1526.98 299.781 1531.82 305.593 1535.95 313.855L1546.69 308.489ZM1502.86 278.42C1488.98 278.42 1476.66 283.532 1466.15 293.427L1474.37 302.165C1482.81 294.225 1492.23 290.42 1502.86 290.42V278.42ZM1466.15 293.427C1455.77 303.198 1448.06 316.419 1442.81 332.744L1454.24 336.416C1459.02 321.53 1465.81 310.229 1474.37 302.165L1466.15 293.427ZM1442.81 332.744C1437.57 349.043 1435 367.233 1435 387.248H1447C1447 368.25 1449.44 351.328 1454.24 336.416L1442.81 332.744ZM1435 387.248V543.58H1447V387.248H1435ZM1441 549.58H1487.82V537.58H1441V549.58ZM1481.82 543.58V623H1493.82V543.58H1481.82ZM1487.82 617H1248.72V629H1487.82V617ZM1254.72 623V543.58H1242.72V623H1254.72ZM1248.72 549.58H1295.54V537.58H1248.72V549.58ZM1301.54 543.58V391.428H1289.54V543.58H1301.54ZM1301.54 391.428C1301.54 355.423 1296.79 327.49 1286.62 308.357L1276.03 313.987C1284.81 330.523 1289.54 356.094 1289.54 391.428H1301.54ZM1286.69 308.489C1281.91 298.916 1275.88 291.352 1268.45 286.183C1260.96 280.974 1252.36 278.42 1242.87 278.42V290.42C1250.1 290.42 1256.27 292.325 1261.6 296.033C1266.98 299.781 1271.83 305.593 1275.96 313.855L1286.69 308.489ZM1242.87 278.42C1228.74 278.42 1216.35 284.282 1205.9 295.348L1214.63 303.588C1223.12 294.59 1232.47 290.42 1242.87 290.42V278.42ZM1206.02 295.225C1195.59 305.652 1187.95 320.344 1182.75 338.807L1194.3 342.056C1199.14 324.851 1205.99 312.233 1214.51 303.711L1206.02 295.225ZM1182.75 338.807C1177.56 357.288 1175 378.476 1175 402.296H1187C1187 379.3 1189.47 359.245 1194.3 342.056L1182.75 338.807ZM1175 402.296V543.58H1187V402.296H1175ZM1181 549.58H1227.82V537.58H1181V549.58ZM1221.82 543.58V623H1233.82V543.58H1221.82ZM1227.82 617H972.005V629H1227.82V617ZM978.005 623V543.58H966.005V623H978.005ZM1777.8 543.58V537.58H1771.8V543.58H1777.8ZM1842.17 543.58V549.58H1848.17V543.58H1842.17ZM1842.17 284.42H1848.17V278.42H1842.17V284.42ZM1777.8 284.42H1771.8V290.42H1777.8V284.42ZM1777.8 205V199H1771.8V205H1777.8ZM1979.27 205H1985.27V199H1979.27V205ZM1979.27 258.504H1973.27V279.521L1984.37 261.672L1979.27 258.504ZM2026.93 212.524L2029.73 217.827L2029.79 217.795L2029.85 217.762L2026.93 212.524ZM2169.05 216.704L2172.25 211.631L2169.05 216.704ZM2218.37 275.224L2212.91 277.716L2218.37 289.672L2223.83 277.716L2218.37 275.224ZM2267.69 216.704L2264.55 211.594L2264.52 211.612L2264.49 211.631L2267.69 216.704ZM2464.15 245.128L2459.65 249.09L2464.15 245.128ZM2506.79 543.58H2500.79V549.58H2506.79V543.58ZM2561.97 543.58H2567.97V537.58H2561.97V543.58ZM2561.97 623V629H2567.97V623H2561.97ZM2314.51 623H2308.51V629H2314.51V623ZM2314.51 543.58V537.58H2308.51V543.58H2314.51ZM2361.33 543.58V549.58H2367.33V543.58H2361.33ZM2347.11 311.172L2341.75 313.855L2341.78 313.922L2341.81 313.987L2347.11 311.172ZM2254.32 334.58L2248.61 332.744L2254.32 334.58ZM2246.79 543.58H2240.79V549.58H2246.79V543.58ZM2293.61 543.58H2299.61V537.58H2293.61V543.58ZM2293.61 623V629H2299.61V623H2293.61ZM2054.51 623H2048.51V629H2054.51V623ZM2054.51 543.58V537.58H2048.51V543.58H2054.51ZM2101.33 543.58V549.58H2107.33V543.58H2101.33ZM2087.12 311.172L2081.75 313.855L2081.78 313.922L2081.82 313.987L2087.12 311.172ZM2016.06 299.468L2020.3 303.711L2020.36 303.65L2020.42 303.588L2016.06 299.468ZM1994.32 340.432L1988.55 338.807L1994.32 340.432ZM1986.8 543.58H1980.8V549.58H1986.8V543.58ZM2033.61 543.58H2039.61V537.58H2033.61V543.58ZM2033.61 623V629H2039.61V623H2033.61ZM1777.8 623H1771.8V629H1777.8V623ZM1777.8 549.58H1842.17V537.58H1777.8V549.58ZM1848.17 543.58V284.42H1836.17V543.58H1848.17ZM1842.17 278.42H1777.8V290.42H1842.17V278.42ZM1783.8 284.42V205H1771.8V284.42H1783.8ZM1777.8 211H1979.27V199H1777.8V211ZM1973.27 205V258.504H1985.27V205H1973.27ZM1984.37 261.672C1996.7 241.83 2011.84 227.299 2029.73 217.827L2024.12 207.221C2004.11 217.813 1987.48 233.935 1974.18 255.336L1984.37 261.672ZM2029.85 217.762C2047.76 207.756 2069.01 202.64 2093.81 202.64V190.64C2067.33 190.64 2043.99 196.114 2024 207.286L2029.85 217.762ZM2093.81 202.64C2121.83 202.64 2145.76 209.097 2165.84 221.777L2172.25 211.631C2149.97 197.559 2123.74 190.64 2093.81 190.64V202.64ZM2165.84 221.777C2185.91 234.454 2201.63 253.003 2212.91 277.716L2223.83 272.732C2211.7 246.171 2194.53 225.706 2172.25 211.631L2165.84 221.777ZM2223.83 277.716C2235.11 253.003 2250.83 234.454 2270.9 221.777L2264.49 211.631C2242.2 225.706 2225.04 246.171 2212.91 272.732L2223.83 277.716ZM2270.84 221.814C2291.47 209.117 2316.25 202.64 2345.44 202.64V190.64C2314.44 190.64 2287.39 197.539 2264.55 211.594L2270.84 221.814ZM2345.44 202.64C2394.77 202.64 2432.57 218.294 2459.65 249.09L2468.66 241.166C2438.89 207.311 2397.55 190.64 2345.44 190.64V202.64ZM2459.65 249.09C2486.82 279.989 2500.79 323.545 2500.79 380.56H2512.79C2512.79 321.65 2498.34 274.917 2468.66 241.166L2459.65 249.09ZM2500.79 380.56V543.58H2512.79V380.56H2500.79ZM2506.79 549.58H2561.97V537.58H2506.79V549.58ZM2555.97 543.58V623H2567.97V543.58H2555.97ZM2561.97 617H2314.51V629H2561.97V617ZM2320.51 623V543.58H2308.51V623H2320.51ZM2314.51 549.58H2361.33V537.58H2314.51V549.58ZM2367.33 543.58V391.428H2355.33V543.58H2367.33ZM2367.33 391.428C2367.33 355.423 2362.58 327.49 2352.41 308.357L2341.81 313.987C2350.6 330.523 2355.33 356.094 2355.33 391.428H2367.33ZM2352.48 308.489C2347.69 298.916 2341.67 291.352 2334.24 286.183C2326.75 280.974 2318.15 278.42 2308.66 278.42V290.42C2315.88 290.42 2322.05 292.325 2327.39 296.033C2332.77 299.781 2337.62 305.593 2341.75 313.855L2352.48 308.489ZM2308.66 278.42C2294.77 278.42 2282.45 283.532 2271.94 293.427L2280.17 302.165C2288.6 294.225 2298.02 290.42 2308.66 290.42V278.42ZM2271.94 293.427C2261.56 303.198 2253.85 316.419 2248.61 332.744L2260.03 336.416C2264.81 321.53 2271.6 310.229 2280.17 302.165L2271.94 293.427ZM2248.61 332.744C2243.37 349.043 2240.79 367.233 2240.79 387.248H2252.79C2252.79 368.25 2255.24 351.328 2260.03 336.416L2248.61 332.744ZM2240.79 387.248V543.58H2252.79V387.248H2240.79ZM2246.79 549.58H2293.61V537.58H2246.79V549.58ZM2287.61 543.58V623H2299.61V543.58H2287.61ZM2293.61 617H2054.51V629H2293.61V617ZM2060.51 623V543.58H2048.51V623H2060.51ZM2054.51 549.58H2101.33V537.58H2054.51V549.58ZM2107.33 543.58V391.428H2095.33V543.58H2107.33ZM2107.33 391.428C2107.33 355.423 2102.58 327.49 2092.42 308.357L2081.82 313.987C2090.6 330.523 2095.33 356.094 2095.33 391.428H2107.33ZM2092.48 308.489C2087.7 298.916 2081.67 291.352 2074.24 286.183C2066.75 280.974 2058.16 278.42 2048.66 278.42V290.42C2055.89 290.42 2062.06 292.325 2067.39 296.033C2072.78 299.781 2077.62 305.593 2081.75 313.855L2092.48 308.489ZM2048.66 278.42C2034.53 278.42 2022.15 284.282 2011.7 295.348L2020.42 303.588C2028.92 294.59 2038.27 290.42 2048.66 290.42V278.42ZM2011.82 295.225C2001.39 305.652 1993.74 320.344 1988.55 338.807L2000.1 342.056C2004.94 324.851 2011.78 312.233 2020.3 303.711L2011.82 295.225ZM1988.55 338.807C1983.35 357.288 1980.8 378.476 1980.8 402.296H1992.8C1992.8 379.3 1995.26 359.245 2000.1 342.056L1988.55 338.807ZM1980.8 402.296V543.58H1992.8V402.296H1980.8ZM1986.8 549.58H2033.61V537.58H1986.8V549.58ZM2027.61 543.58V623H2039.61V543.58H2027.61ZM2033.61 617H1777.8V629H2033.61V617ZM1783.8 623V543.58H1771.8V623H1783.8ZM2583.59 543.58V537.58H2577.59V543.58H2583.59ZM2647.96 543.58V549.58H2653.96V543.58H2647.96ZM2647.96 284.42H2653.96V278.42H2647.96V284.42ZM2583.59 284.42H2577.59V290.42H2583.59V284.42ZM2583.59 205V199H2577.59V205H2583.59ZM2792.59 205H2798.59V199H2792.59V205ZM2792.59 543.58H2786.59V549.58H2792.59V543.58ZM2856.96 543.58H2862.96V537.58H2856.96V543.58ZM2856.96 623V629H2862.96V623H2856.96ZM2583.59 623H2577.59V629H2583.59V623ZM2615.36 0.179946V-5.82005H2605.21L2610.1 3.07146L2615.36 0.179946ZM2807.64 0.179946L2812.9 3.07146L2817.79 -5.82005H2807.64V0.179946ZM2715.68 167.38V173.38H2719.23L2720.94 170.271L2715.68 167.38ZM2707.32 167.38L2702.06 170.271L2703.77 173.38H2707.32V167.38ZM2583.59 549.58H2647.96V537.58H2583.59V549.58ZM2653.96 543.58V284.42H2641.96V543.58H2653.96ZM2647.96 278.42H2583.59V290.42H2647.96V278.42ZM2589.59 284.42V205H2577.59V284.42H2589.59ZM2583.59 211H2792.59V199H2583.59V211ZM2786.59 205V543.58H2798.59V205H2786.59ZM2792.59 549.58H2856.96V537.58H2792.59V549.58ZM2850.96 543.58V623H2862.96V543.58H2850.96ZM2856.96 617H2583.59V629H2856.96V617ZM2589.59 623V543.58H2577.59V623H2589.59ZM2615.36 6.17995H2807.64V-5.82005H2615.36V6.17995ZM2802.38 -2.71157L2710.42 164.488L2720.94 170.271L2812.9 3.07146L2802.38 -2.71157ZM2715.68 161.38H2707.32V173.38H2715.68V161.38ZM2712.58 164.488L2620.62 -2.71157L2610.1 3.07146L2702.06 170.271L2712.58 164.488ZM2974.45 592.068L2970.26 596.36L2970.29 596.384L2970.31 596.408L2974.45 592.068ZM2938.51 284.42H2944.51V278.42H2938.51V284.42ZM2869.95 284.42H2863.95V290.42H2869.95V284.42ZM2869.95 205V199H2863.95V205H2869.95ZM2982.81 178.248L2986.86 182.676L2982.81 178.248ZM3012.07 79.6V73.6H3006.07V79.6H3012.07ZM3083.13 79.6H3089.13V73.6H3083.13V79.6ZM3083.13 205H3077.13V211H3083.13V205ZM3201.85 205H3207.85V199H3201.85V205ZM3201.85 284.42V290.42H3207.85V284.42H3201.85ZM3083.13 284.42V278.42H3077.13V284.42H3083.13ZM3095.67 529.368L3091.17 533.338L3091.3 533.478L3091.43 533.611L3095.67 529.368ZM3171.75 538.564L3172.93 544.448L3173.01 544.43L3173.1 544.41L3171.75 538.564ZM3208.53 527.696H3214.53V518.925L3206.36 522.104L3208.53 527.696ZM3208.53 609.624L3210.21 615.386L3214.53 614.13V609.624H3208.53ZM3148.34 622.164L3147.47 616.227L3147.46 616.229L3147.45 616.23L3148.34 622.164ZM3076.45 621.18C3034.06 621.18 3001.71 609.794 2978.6 587.728L2970.31 596.408C2996.24 621.158 3031.88 633.18 3076.45 633.18V621.18ZM2978.65 587.776C2956.12 565.777 2944.51 534.613 2944.51 493.42H2932.51C2932.51 536.942 2944.85 571.543 2970.26 596.36L2978.65 587.776ZM2944.51 493.42V284.42H2932.51V493.42H2944.51ZM2938.51 278.42H2869.95V290.42H2938.51V278.42ZM2875.95 284.42V205H2863.95V284.42H2875.95ZM2869.95 211H2906.74V199H2869.95V211ZM2906.74 211C2939.16 211 2966.05 201.701 2986.86 182.676L2978.76 173.82C2960.56 190.465 2936.74 199 2906.74 199V211ZM2986.86 182.676C3008 163.348 3018.07 134.731 3018.07 97.992H3006.07C3006.07 132.591 2996.64 157.479 2978.76 173.82L2986.86 182.676ZM3018.07 97.992V79.6H3006.07V97.992H3018.07ZM3012.07 85.6H3083.13V73.6H3012.07V85.6ZM3077.13 79.6V205H3089.13V79.6H3077.13ZM3083.13 211H3201.85V199H3083.13V211ZM3195.85 205V284.42H3207.85V205H3195.85ZM3201.85 278.42H3083.13V290.42H3201.85V278.42ZM3077.13 284.42V489.24H3089.13V284.42H3077.13ZM3077.13 489.24C3077.13 507.439 3081.54 522.42 3091.17 533.338L3100.17 525.398C3093.09 517.366 3089.13 505.595 3089.13 489.24H3077.13ZM3091.43 533.611C3101.73 543.908 3115.66 548.744 3132.46 548.744V536.744C3118.04 536.744 3107.45 532.663 3099.92 525.125L3091.43 533.611ZM3132.46 548.744C3145.17 548.744 3158.66 547.3 3172.93 544.448L3170.57 532.681C3156.97 535.402 3144.27 536.744 3132.46 536.744V548.744ZM3173.1 544.41C3187.77 541.024 3200.33 537.325 3210.71 533.288L3206.36 522.104C3196.67 525.87 3184.71 529.416 3170.4 532.718L3173.1 544.41ZM3202.53 527.696V609.624H3214.53V527.696H3202.53ZM3206.86 603.862C3189.91 608.783 3170.12 612.912 3147.47 616.227L3149.21 628.101C3172.26 624.728 3192.6 620.497 3210.21 615.386L3206.86 603.862ZM3147.45 616.23C3125.49 619.525 3101.82 621.18 3076.45 621.18V633.18C3102.34 633.18 3126.61 631.491 3149.23 628.098L3147.45 616.23Z" fill="white" mask="url(#path-1-inside-1_3720_10094)"/>
</svg>
