<svg width="2755" height="558" viewBox="0 0 2755 558" fill="none" xmlns="http://www.w3.org/2000/svg">
<mask id="path-1-inside-1_3720_10414" fill="white">
<path d="M-4.88 393.72H50.56V399.48C52.96 412.44 62.56 425.88 79.36 439.8C96.16 453.24 116.56 464.52 140.56 473.64C165.04 482.76 188.8 487.32 211.84 487.32C223.84 487.32 233.44 485.4 240.64 481.56C248.32 477.24 252.16 471.48 252.16 464.28C252.16 459 250 454.44 245.68 450.6C241.84 446.76 234.16 442.68 222.64 438.36C211.6 434.04 194.32 428.52 170.8 421.8C131.92 411.72 100 400.92 75.04 389.4C50.56 377.4 31.84 362.76 18.88 345.48C5.92 328.2 -0.559999 306.36 -0.559999 279.96C-0.559999 244.44 11.92 217.32 36.88 198.6C62.32 179.4 95.68 169.8 136.96 169.8C152.8 169.8 166.96 170.76 179.44 172.68C191.92 174.12 205.12 176.52 219.04 179.88C230.08 182.28 241.12 184.92 252.16 187.8V153.96H313.36V314.52H256.48V310.2C254.56 298.2 245.44 285.96 229.12 273.48C212.8 261 193.6 250.68 171.52 242.52C149.92 234.36 131.44 230.28 116.08 230.28C106.96 230.28 99.52 232.2 93.76 236.04C88 239.88 85.12 244.92 85.12 251.16C85.12 259.8 89.2 267 97.36 272.76C105.52 278.04 120.64 284.52 142.72 292.2C147.52 293.64 152.56 295.32 157.84 297.24C163.6 298.68 169.36 300.36 175.12 302.28C178 303.24 181.12 304.2 184.48 305.16C187.84 306.12 190.96 307.08 193.84 308.04C230.8 319.56 259.36 330.6 279.52 341.16C299.68 351.24 314.56 363.48 324.16 377.88C334.24 391.8 339.28 410.28 339.28 433.32C339.28 470.76 326.8 499.08 301.84 518.28C277.36 537 243.76 546.36 201.04 546.36C190.96 546.36 179.92 545.88 167.92 544.92C155.92 543.96 143.68 542.76 131.2 541.32C96.64 537.48 71.44 533.16 55.6 528.36V557.16H-4.88V393.72ZM541.381 544.2C513.541 544.2 489.541 537.72 469.381 524.76C449.221 511.8 433.621 493.56 422.581 470.04C411.541 446.04 406.021 417.72 406.021 385.08V245.4H358.501V177H531.301V375.72C531.301 406.44 535.621 429.72 544.261 445.56C552.901 460.92 564.901 468.6 580.261 468.6C591.781 468.6 601.861 464.52 610.501 456.36C619.141 447.72 625.621 435.72 629.941 420.36C634.741 405 637.141 387 637.141 366.36V245.4H578.101V177H817.141V245.4H761.701V468.6H817.141V537H643.621V488.76C632.581 507 618.421 520.92 601.141 530.52C584.341 539.64 564.421 544.2 541.381 544.2ZM835.219 468.6H890.659V245.4H835.219V177H1008.74V223.08C1019.78 205.32 1033.46 192.12 1049.78 183.48C1066.1 174.36 1085.3 169.8 1107.38 169.8C1132.34 169.8 1153.94 175.56 1172.18 187.08C1190.42 198.6 1204.58 215.4 1214.66 237.48C1224.74 215.4 1238.9 198.6 1257.14 187.08C1275.86 175.56 1298.18 169.8 1324.1 169.8C1367.78 169.8 1401.86 183.72 1426.34 211.56C1450.82 239.4 1463.06 278.28 1463.06 328.2V468.6H1510.58V537H1297.46V468.6H1337.78V337.56C1337.78 306.84 1333.7 283.8 1325.54 268.44C1317.86 253.08 1306.82 245.4 1292.42 245.4C1281.86 245.4 1272.5 249.24 1264.34 256.92C1256.18 264.6 1249.94 275.16 1245.62 288.6C1241.3 302.04 1239.14 317.16 1239.14 333.96V468.6H1279.46V537H1073.54V468.6H1113.86V337.56C1113.86 306.84 1109.78 283.8 1101.62 268.44C1093.94 253.08 1082.9 245.4 1068.5 245.4C1057.94 245.4 1048.58 249.72 1040.42 258.36C1032.26 266.52 1026.02 278.28 1021.7 293.64C1017.38 309 1015.22 326.76 1015.22 346.92V468.6H1055.54V537H835.219V468.6ZM1529.2 468.6H1584.64V245.4H1529.2V177H1702.72V223.08C1713.76 205.32 1727.44 192.12 1743.76 183.48C1760.08 174.36 1779.28 169.8 1801.36 169.8C1826.32 169.8 1847.92 175.56 1866.16 187.08C1884.4 198.6 1898.56 215.4 1908.64 237.48C1918.72 215.4 1932.88 198.6 1951.12 187.08C1969.84 175.56 1992.16 169.8 2018.08 169.8C2061.76 169.8 2095.84 183.72 2120.32 211.56C2144.8 239.4 2157.04 278.28 2157.04 328.2V468.6H2204.56V537H1991.44V468.6H2031.76V337.56C2031.76 306.84 2027.68 283.8 2019.52 268.44C2011.84 253.08 2000.8 245.4 1986.4 245.4C1975.84 245.4 1966.48 249.24 1958.32 256.92C1950.16 264.6 1943.92 275.16 1939.6 288.6C1935.28 302.04 1933.12 317.16 1933.12 333.96V468.6H1973.44V537H1767.52V468.6H1807.84V337.56C1807.84 306.84 1803.76 283.8 1795.6 268.44C1787.92 253.08 1776.88 245.4 1762.48 245.4C1751.92 245.4 1742.56 249.72 1734.4 258.36C1726.24 266.52 1720 278.28 1715.68 293.64C1711.36 309 1709.2 326.76 1709.2 346.92V468.6H1749.52V537H1529.2V468.6ZM2223.19 468.6H2278.63V245.4H2223.19V177H2403.19V468.6H2458.63V537H2223.19V468.6ZM2250.55 0.599954H2416.15L2336.95 144.6H2329.75L2250.55 0.599954ZM2647.66 540.6C2610.22 540.6 2580.94 530.52 2559.82 510.36C2539.18 490.2 2528.86 461.88 2528.86 425.4V245.4H2469.82V177H2501.5C2528.38 177 2550.22 169.32 2567.02 153.96C2583.82 138.6 2592.22 115.56 2592.22 84.84V69H2653.42V177H2755.66V245.4H2653.42V421.8C2653.42 436.68 2657.02 448.2 2664.22 456.36C2671.9 464.04 2682.46 467.88 2695.9 467.88C2706.46 467.88 2717.74 466.68 2729.74 464.28C2742.22 461.4 2752.78 458.28 2761.42 454.92V525.48C2746.54 529.8 2729.26 533.4 2709.58 536.28C2690.38 539.16 2669.74 540.6 2647.66 540.6Z"/>
</mask>
<path d="M-4.88 393.72V387.72H-10.88V393.72H-4.88ZM50.56 393.72H56.56V387.72H50.56V393.72ZM50.56 399.48H44.56V400.031L44.6603 400.573L50.56 399.48ZM79.36 439.8L75.5319 444.42L75.5716 444.453L75.6118 444.485L79.36 439.8ZM140.56 473.64L138.429 479.249L138.447 479.256L138.465 479.263L140.56 473.64ZM240.64 481.56L243.464 486.854L243.523 486.822L243.582 486.789L240.64 481.56ZM245.68 450.6L241.437 454.843L241.562 454.967L241.694 455.084L245.68 450.6ZM222.64 438.36L220.454 443.947L220.493 443.963L220.533 443.978L222.64 438.36ZM170.8 421.8L172.448 416.031L172.377 416.011L172.306 415.992L170.8 421.8ZM75.04 389.4L72.3991 394.788L72.462 394.818L72.5257 394.848L75.04 389.4ZM18.88 345.48L14.08 349.08L18.88 345.48ZM36.88 198.6L40.48 203.4L40.4872 203.395L40.4944 203.389L36.88 198.6ZM179.44 172.68L178.528 178.61L178.64 178.627L178.752 178.64L179.44 172.68ZM219.04 179.88L217.632 185.712L217.699 185.729L217.765 185.743L219.04 179.88ZM252.16 187.8L250.645 193.606L258.16 195.566V187.8H252.16ZM252.16 153.96V147.96H246.16V153.96H252.16ZM313.36 153.96H319.36V147.96H313.36V153.96ZM313.36 314.52V320.52H319.36V314.52H313.36ZM256.48 314.52H250.48V320.52H256.48V314.52ZM256.48 310.2H262.48V309.723L262.405 309.252L256.48 310.2ZM229.12 273.48L232.765 268.714L229.12 273.48ZM171.52 242.52L169.4 248.133L169.42 248.14L169.44 248.148L171.52 242.52ZM93.76 236.04L97.0882 241.032H97.0882L93.76 236.04ZM97.36 272.76L93.8999 277.662L93.9988 277.732L94.1005 277.797L97.36 272.76ZM142.72 292.2L140.749 297.867L140.872 297.91L140.996 297.947L142.72 292.2ZM157.84 297.24L155.79 302.879L156.082 302.985L156.385 303.061L157.84 297.24ZM175.12 302.28L177.017 296.588H177.017L175.12 302.28ZM184.48 305.16L186.128 299.391H186.128L184.48 305.16ZM193.84 308.04L191.943 313.732L191.998 313.751L192.055 313.768L193.84 308.04ZM279.52 341.16L276.736 346.475L276.786 346.501L276.837 346.527L279.52 341.16ZM324.16 377.88L319.168 381.208L319.232 381.305L319.3 381.399L324.16 377.88ZM301.84 518.28L305.485 523.046L305.492 523.041L305.498 523.036L301.84 518.28ZM167.92 544.92L167.442 550.901L167.92 544.92ZM131.2 541.32L131.888 535.36L131.875 535.358L131.863 535.357L131.2 541.32ZM55.6 528.36L57.34 522.618L49.6 520.272V528.36H55.6ZM55.6 557.16V563.16H61.6V557.16H55.6ZM-4.88 557.16H-10.88V563.16H-4.88V557.16ZM-4.88 399.72H50.56V387.72H-4.88V399.72ZM44.56 393.72V399.48H56.56V393.72H44.56ZM44.6603 400.573C47.4374 415.569 58.3055 430.147 75.5319 444.42L83.1881 435.18C66.8145 421.613 58.4826 409.311 56.4597 398.387L44.6603 400.573ZM75.6118 444.485C92.9831 458.382 113.954 469.948 138.429 479.249L142.691 468.031C119.166 459.092 99.3369 448.098 83.1082 435.115L75.6118 444.485ZM138.465 479.263C163.527 488.599 187.996 493.32 211.84 493.32V481.32C189.604 481.32 166.553 476.921 142.655 468.018L138.465 479.263ZM211.84 493.32C224.395 493.32 235.081 491.325 243.464 486.854L237.816 476.266C231.799 479.475 223.285 481.32 211.84 481.32V493.32ZM243.582 486.789C252.652 481.687 258.16 474.165 258.16 464.28H246.16C246.16 468.795 243.988 472.793 237.698 476.331L243.582 486.789ZM258.16 464.28C258.16 457.112 255.131 450.973 249.666 446.116L241.694 455.084C244.869 457.907 246.16 460.888 246.16 464.28H258.16ZM249.923 446.357C245.086 441.521 236.304 437.076 224.747 432.742L220.533 443.978C232.016 448.284 238.594 451.999 241.437 454.843L249.923 446.357ZM224.826 432.773C213.509 428.344 196.002 422.76 172.448 416.031L169.152 427.569C192.638 434.28 209.691 439.736 220.454 443.947L224.826 432.773ZM172.306 415.992C133.629 405.965 102.079 395.271 77.5544 383.952L72.5257 394.848C97.9214 406.569 130.211 417.475 169.294 427.608L172.306 415.992ZM77.6809 384.012C53.8341 372.323 35.9421 358.229 23.68 341.88L14.08 349.08C27.7379 367.291 47.2859 382.477 72.3991 394.788L77.6809 384.012ZM23.68 341.88C11.6591 325.852 5.44 305.357 5.44 279.96H-6.56C-6.56 307.363 0.180933 330.548 14.08 349.08L23.68 341.88ZM5.44 279.96C5.44 246.03 17.2549 220.819 40.48 203.4L33.28 193.8C6.58513 213.821 -6.56 242.85 -6.56 279.96H5.44ZM40.4944 203.389C64.622 185.18 96.5979 175.8 136.96 175.8V163.8C94.7621 163.8 60.018 173.62 33.2656 193.811L40.4944 203.389ZM136.96 175.8C152.568 175.8 166.414 176.747 178.528 178.61L180.352 166.75C167.506 164.773 153.032 163.8 136.96 163.8V175.8ZM178.752 178.64C190.959 180.049 203.917 182.402 217.632 185.712L220.448 174.047C206.323 170.638 192.881 168.191 180.128 166.72L178.752 178.64ZM217.765 185.743C228.724 188.125 239.684 190.746 250.645 193.606L253.675 181.994C242.556 179.094 231.436 176.435 220.315 174.017L217.765 185.743ZM258.16 187.8V153.96H246.16V187.8H258.16ZM252.16 159.96H313.36V147.96H252.16V159.96ZM307.36 153.96V314.52H319.36V153.96H307.36ZM313.36 308.52H256.48V320.52H313.36V308.52ZM262.48 314.52V310.2H250.48V314.52H262.48ZM262.405 309.252C260.121 294.979 249.519 281.526 232.765 268.714L225.475 278.246C241.361 290.394 248.999 301.421 250.555 311.148L262.405 309.252ZM232.765 268.714C215.906 255.822 196.161 245.23 173.6 236.892L169.44 248.148C191.039 256.13 209.694 266.178 225.475 278.246L232.765 268.714ZM173.64 236.907C151.67 228.607 132.433 224.28 116.08 224.28V236.28C130.447 236.28 148.17 240.113 169.4 248.133L173.64 236.907ZM116.08 224.28C106.146 224.28 97.4458 226.372 90.4318 231.048L97.0882 241.032C101.594 238.028 107.775 236.28 116.08 236.28V224.28ZM90.4318 231.048C83.2175 235.857 79.12 242.669 79.12 251.16H91.12C91.12 247.171 92.7825 243.903 97.0882 241.032L90.4318 231.048ZM79.12 251.16C79.12 262.075 84.433 270.979 93.8999 277.662L100.82 267.858C93.967 263.021 91.12 257.525 91.12 251.16H79.12ZM94.1005 277.797C102.93 283.51 118.671 290.188 140.749 297.867L144.691 286.533C122.609 278.852 108.11 272.57 100.62 267.723L94.1005 277.797ZM140.996 297.947C145.674 299.35 150.605 300.993 155.79 302.879L159.89 291.601C154.515 289.647 149.366 287.93 144.444 286.453L140.996 297.947ZM156.385 303.061C161.992 304.463 167.605 306.1 173.223 307.972L177.017 296.588C171.115 294.62 165.208 292.897 159.295 291.419L156.385 303.061ZM173.223 307.972C176.196 308.963 179.4 309.949 182.832 310.929L186.128 299.391C182.84 298.451 179.804 297.517 177.017 296.588L173.223 307.972ZM182.832 310.929C186.12 311.869 189.156 312.803 191.943 313.732L195.737 302.348C192.764 301.357 189.56 300.371 186.128 299.391L182.832 310.929ZM192.055 313.768C228.873 325.244 257.041 336.159 276.736 346.475L282.304 335.845C261.679 325.041 232.727 313.876 195.625 302.312L192.055 313.768ZM276.837 346.527C296.338 356.277 310.296 367.901 319.168 381.208L329.152 374.552C318.824 359.059 303.022 346.203 282.203 335.793L276.837 346.527ZM319.3 381.399C328.424 393.998 333.28 411.119 333.28 433.32H345.28C345.28 409.441 340.056 389.602 329.02 374.361L319.3 381.399ZM333.28 433.32C333.28 469.292 321.378 495.681 298.182 513.524L305.498 523.036C332.222 502.479 345.28 472.228 345.28 433.32H333.28ZM298.195 513.514C275.099 531.176 242.942 540.36 201.04 540.36V552.36C244.578 552.36 279.621 542.824 305.485 523.046L298.195 513.514ZM201.04 540.36C191.147 540.36 180.269 539.889 168.398 538.939L167.442 550.901C179.571 551.871 190.773 552.36 201.04 552.36V540.36ZM168.398 538.939C156.471 537.985 144.301 536.792 131.888 535.36L130.512 547.28C143.059 548.728 155.369 549.935 167.442 550.901L168.398 538.939ZM131.863 535.357C97.3607 531.523 72.6219 527.249 57.34 522.618L53.86 534.102C70.2581 539.071 95.9193 543.437 130.537 547.283L131.863 535.357ZM49.6 528.36V557.16H61.6V528.36H49.6ZM55.6 551.16H-4.88V563.16H55.6V551.16ZM1.12 557.16V393.72H-10.88V557.16H1.12ZM469.381 524.76L472.625 519.713L469.381 524.76ZM422.581 470.04L417.13 472.547L417.139 472.568L417.149 472.589L422.581 470.04ZM406.021 245.4H412.021V239.4H406.021V245.4ZM358.501 245.4H352.501V251.4H358.501V245.4ZM358.501 177V171H352.501V177H358.501ZM531.301 177H537.301V171H531.301V177ZM544.261 445.56L538.993 448.433L539.012 448.467L539.031 448.502L544.261 445.56ZM610.501 456.36L614.62 460.722L614.683 460.663L614.743 460.603L610.501 456.36ZM629.941 420.36L624.214 418.57L624.188 418.653L624.165 418.736L629.941 420.36ZM637.141 245.4H643.141V239.4H637.141V245.4ZM578.101 245.4H572.101V251.4H578.101V245.4ZM578.101 177V171H572.101V177H578.101ZM817.141 177H823.141V171H817.141V177ZM817.141 245.4V251.4H823.141V245.4H817.141ZM761.701 245.4V239.4H755.701V245.4H761.701ZM761.701 468.6H755.701V474.6H761.701V468.6ZM817.141 468.6H823.141V462.6H817.141V468.6ZM817.141 537V543H823.141V537H817.141ZM643.621 537H637.621V543H643.621V537ZM643.621 488.76H649.621V467.26L638.488 485.653L643.621 488.76ZM601.141 530.52L604.003 535.793L604.029 535.779L604.055 535.765L601.141 530.52ZM541.381 538.2C514.501 538.2 491.669 531.956 472.625 519.713L466.136 529.807C487.412 543.484 512.58 550.2 541.381 550.2V538.2ZM472.625 519.713C453.494 507.414 438.614 490.078 428.012 467.491L417.149 472.589C428.627 497.042 444.947 516.186 466.136 529.807L472.625 519.713ZM428.032 467.533C417.428 444.482 412.021 417.053 412.021 385.08H400.021C400.021 418.387 405.653 447.598 417.13 472.547L428.032 467.533ZM412.021 385.08V245.4H400.021V385.08H412.021ZM406.021 239.4H358.501V251.4H406.021V239.4ZM364.501 245.4V177H352.501V245.4H364.501ZM358.501 183H531.301V171H358.501V183ZM525.301 177V375.72H537.301V177H525.301ZM525.301 375.72C525.301 406.827 529.645 431.295 538.993 448.433L549.528 442.687C541.596 428.145 537.301 406.053 537.301 375.72H525.301ZM539.031 448.502C548.545 465.416 562.374 474.6 580.261 474.6V462.6C567.427 462.6 557.256 456.424 549.49 442.618L539.031 448.502ZM580.261 474.6C593.365 474.6 604.906 469.897 614.62 460.722L606.381 451.998C598.816 459.143 590.196 462.6 580.261 462.6V474.6ZM614.743 460.603C624.299 451.047 631.201 438.04 635.717 421.984L624.165 418.736C620.04 433.4 613.982 444.393 606.258 452.117L614.743 460.603ZM635.668 422.15C640.691 406.073 643.141 387.445 643.141 366.36H631.141C631.141 386.555 628.79 403.927 624.214 418.57L635.668 422.15ZM643.141 366.36V245.4H631.141V366.36H643.141ZM637.141 239.4H578.101V251.4H637.141V239.4ZM584.101 245.4V177H572.101V245.4H584.101ZM578.101 183H817.141V171H578.101V183ZM811.141 177V245.4H823.141V177H811.141ZM817.141 239.4H761.701V251.4H817.141V239.4ZM755.701 245.4V468.6H767.701V245.4H755.701ZM761.701 474.6H817.141V462.6H761.701V474.6ZM811.141 468.6V537H823.141V468.6H811.141ZM817.141 531H643.621V543H817.141V531ZM649.621 537V488.76H637.621V537H649.621ZM638.488 485.653C627.945 503.072 614.522 516.222 598.227 525.275L604.055 535.765C622.319 525.618 637.217 510.928 648.754 491.867L638.488 485.653ZM598.278 525.247C582.52 533.801 563.625 538.2 541.381 538.2V550.2C565.216 550.2 586.161 545.479 604.003 535.793L598.278 525.247ZM835.219 468.6V462.6H829.219V468.6H835.219ZM890.659 468.6V474.6H896.659V468.6H890.659ZM890.659 245.4H896.659V239.4H890.659V245.4ZM835.219 245.4H829.219V251.4H835.219V245.4ZM835.219 177V171H829.219V177H835.219ZM1008.74 177H1014.74V171H1008.74V177ZM1008.74 223.08H1002.74V244.097L1013.84 226.248L1008.74 223.08ZM1049.78 183.48L1052.59 188.783L1052.65 188.751L1052.71 188.718L1049.78 183.48ZM1214.66 237.48L1209.2 239.972L1214.66 251.928L1220.12 239.972L1214.66 237.48ZM1257.14 187.08L1253.99 181.97L1253.96 181.988L1253.94 182.007L1257.14 187.08ZM1426.34 211.56L1421.83 215.522L1426.34 211.56ZM1463.06 468.6H1457.06V474.6H1463.06V468.6ZM1510.58 468.6H1516.58V462.6H1510.58V468.6ZM1510.58 537V543H1516.58V537H1510.58ZM1297.46 537H1291.46V543H1297.46V537ZM1297.46 468.6V462.6H1291.46V468.6H1297.46ZM1337.78 468.6V474.6H1343.78V468.6H1337.78ZM1325.54 268.44L1320.17 271.123L1320.21 271.19L1320.24 271.255L1325.54 268.44ZM1245.62 288.6L1239.91 286.764L1245.62 288.6ZM1239.14 468.6H1233.14V474.6H1239.14V468.6ZM1279.46 468.6H1285.46V462.6H1279.46V468.6ZM1279.46 537V543H1285.46V537H1279.46ZM1073.54 537H1067.54V543H1073.54V537ZM1073.54 468.6V462.6H1067.54V468.6H1073.54ZM1113.86 468.6V474.6H1119.86V468.6H1113.86ZM1101.62 268.44L1096.25 271.123L1096.29 271.19L1096.32 271.255L1101.62 268.44ZM1040.42 258.36L1044.66 262.603L1044.72 262.542L1044.78 262.48L1040.42 258.36ZM1021.7 293.64L1015.92 292.016L1021.7 293.64ZM1015.22 468.6H1009.22V474.6H1015.22V468.6ZM1055.54 468.6H1061.54V462.6H1055.54V468.6ZM1055.54 537V543H1061.54V537H1055.54ZM835.219 537H829.219V543H835.219V537ZM835.219 474.6H890.659V462.6H835.219V474.6ZM896.659 468.6V245.4H884.659V468.6H896.659ZM890.659 239.4H835.219V251.4H890.659V239.4ZM841.219 245.4V177H829.219V245.4H841.219ZM835.219 183H1008.74V171H835.219V183ZM1002.74 177V223.08H1014.74V177H1002.74ZM1013.84 226.248C1024.39 209.267 1037.32 196.863 1052.59 188.783L1046.97 178.177C1029.59 187.377 1015.17 201.372 1003.64 219.912L1013.84 226.248ZM1052.71 188.718C1067.98 180.181 1086.14 175.8 1107.38 175.8V163.8C1084.46 163.8 1064.22 168.539 1046.85 178.242L1052.71 188.718ZM1107.38 175.8C1131.39 175.8 1151.84 181.329 1168.98 192.153L1175.38 182.007C1156.04 169.791 1133.29 163.8 1107.38 163.8V175.8ZM1168.98 192.153C1186.11 202.974 1199.54 218.816 1209.2 239.972L1220.12 234.988C1209.62 211.984 1194.73 194.226 1175.38 182.007L1168.98 192.153ZM1220.12 239.972C1229.78 218.816 1243.21 202.974 1260.34 192.153L1253.94 182.007C1234.59 194.226 1219.7 211.984 1209.2 234.988L1220.12 239.972ZM1260.28 192.19C1277.9 181.349 1299.09 175.8 1324.1 175.8V163.8C1297.27 163.8 1273.82 169.771 1253.99 181.97L1260.28 192.19ZM1324.1 175.8C1366.39 175.8 1398.7 189.211 1421.83 215.522L1430.85 207.598C1405.02 178.229 1369.17 163.8 1324.1 163.8V175.8ZM1421.83 215.522C1445.06 241.936 1457.06 279.228 1457.06 328.2H1469.06C1469.06 277.332 1456.58 236.864 1430.85 207.598L1421.83 215.522ZM1457.06 328.2V468.6H1469.06V328.2H1457.06ZM1463.06 474.6H1510.58V462.6H1463.06V474.6ZM1504.58 468.6V537H1516.58V468.6H1504.58ZM1510.58 531H1297.46V543H1510.58V531ZM1303.46 537V468.6H1291.46V537H1303.46ZM1297.46 474.6H1337.78V462.6H1297.46V474.6ZM1343.78 468.6V337.56H1331.78V468.6H1343.78ZM1343.78 337.56C1343.78 306.505 1339.69 282.284 1330.84 265.625L1320.24 271.255C1327.71 285.316 1331.78 307.175 1331.78 337.56H1343.78ZM1330.91 265.757C1326.74 257.422 1321.47 250.785 1314.93 246.235C1308.33 241.645 1300.75 239.4 1292.42 239.4V251.4C1298.49 251.4 1303.63 252.995 1308.07 256.085C1312.57 259.215 1316.66 264.098 1320.17 271.123L1330.91 265.757ZM1292.42 239.4C1280.23 239.4 1269.43 243.894 1260.23 252.551L1268.45 261.289C1275.57 254.586 1283.49 251.4 1292.42 251.4V239.4ZM1260.23 252.551C1251.16 261.084 1244.46 272.604 1239.91 286.764L1251.33 290.436C1255.42 277.716 1261.2 268.116 1268.45 261.289L1260.23 252.551ZM1239.91 286.764C1235.36 300.898 1233.14 316.652 1233.14 333.96H1245.14C1245.14 317.668 1247.23 303.182 1251.33 290.436L1239.91 286.764ZM1233.14 333.96V468.6H1245.14V333.96H1233.14ZM1239.14 474.6H1279.46V462.6H1239.14V474.6ZM1273.46 468.6V537H1285.46V468.6H1273.46ZM1279.46 531H1073.54V543H1279.46V531ZM1079.54 537V468.6H1067.54V537H1079.54ZM1073.54 474.6H1113.86V462.6H1073.54V474.6ZM1119.86 468.6V337.56H1107.86V468.6H1119.86ZM1119.86 337.56C1119.86 306.505 1115.77 282.284 1106.92 265.625L1096.32 271.255C1103.79 285.316 1107.86 307.175 1107.86 337.56H1119.86ZM1106.99 265.757C1102.82 257.422 1097.55 250.785 1091.01 246.235C1084.41 241.645 1076.83 239.4 1068.5 239.4V251.4C1074.57 251.4 1079.71 252.995 1084.15 256.085C1088.65 259.215 1092.74 264.098 1096.25 271.123L1106.99 265.757ZM1068.5 239.4C1056.07 239.4 1045.19 244.566 1036.06 254.24L1044.78 262.48C1051.96 254.874 1059.81 251.4 1068.5 251.4V239.4ZM1036.18 254.117C1027.06 263.23 1020.42 276.026 1015.92 292.016L1027.48 295.264C1031.62 280.534 1037.45 269.81 1044.66 262.603L1036.18 254.117ZM1015.92 292.016C1011.42 308.022 1009.22 326.348 1009.22 346.92H1021.22C1021.22 327.172 1023.34 309.978 1027.48 295.264L1015.92 292.016ZM1009.22 346.92V468.6H1021.22V346.92H1009.22ZM1015.22 474.6H1055.54V462.6H1015.22V474.6ZM1049.54 468.6V537H1061.54V468.6H1049.54ZM1055.54 531H835.219V543H1055.54V531ZM841.219 537V468.6H829.219V537H841.219ZM1529.2 468.6V462.6H1523.2V468.6H1529.2ZM1584.64 468.6V474.6H1590.64V468.6H1584.64ZM1584.64 245.4H1590.64V239.4H1584.64V245.4ZM1529.2 245.4H1523.2V251.4H1529.2V245.4ZM1529.2 177V171H1523.2V177H1529.2ZM1702.72 177H1708.72V171H1702.72V177ZM1702.72 223.08H1696.72V244.097L1707.82 226.248L1702.72 223.08ZM1743.76 183.48L1746.57 188.783L1746.63 188.751L1746.69 188.718L1743.76 183.48ZM1908.64 237.48L1903.19 239.972L1908.64 251.928L1914.1 239.972L1908.64 237.48ZM1951.12 187.08L1947.98 181.97L1947.95 181.988L1947.92 182.007L1951.12 187.08ZM2120.32 211.56L2115.82 215.522L2120.32 211.56ZM2157.04 468.6H2151.04V474.6H2157.04V468.6ZM2204.56 468.6H2210.56V462.6H2204.56V468.6ZM2204.56 537V543H2210.56V537H2204.56ZM1991.44 537H1985.44V543H1991.44V537ZM1991.44 468.6V462.6H1985.44V468.6H1991.44ZM2031.76 468.6V474.6H2037.76V468.6H2031.76ZM2019.52 268.44L2014.16 271.123L2014.19 271.19L2014.23 271.255L2019.52 268.44ZM1939.6 288.6L1933.89 286.764L1939.6 288.6ZM1933.12 468.6H1927.12V474.6H1933.12V468.6ZM1973.44 468.6H1979.44V462.6H1973.44V468.6ZM1973.44 537V543H1979.44V537H1973.44ZM1767.52 537H1761.52V543H1767.52V537ZM1767.52 468.6V462.6H1761.52V468.6H1767.52ZM1807.84 468.6V474.6H1813.84V468.6H1807.84ZM1795.6 268.44L1790.24 271.123L1790.27 271.19L1790.31 271.255L1795.6 268.44ZM1734.4 258.36L1738.65 262.603L1738.71 262.542L1738.77 262.48L1734.4 258.36ZM1715.68 293.64L1709.91 292.016L1715.68 293.64ZM1709.2 468.6H1703.2V474.6H1709.2V468.6ZM1749.52 468.6H1755.52V462.6H1749.52V468.6ZM1749.52 537V543H1755.52V537H1749.52ZM1529.2 537H1523.2V543H1529.2V537ZM1529.2 474.6H1584.64V462.6H1529.2V474.6ZM1590.64 468.6V245.4H1578.64V468.6H1590.64ZM1584.64 239.4H1529.2V251.4H1584.64V239.4ZM1535.2 245.4V177H1523.2V245.4H1535.2ZM1529.2 183H1702.72V171H1529.2V183ZM1696.72 177V223.08H1708.72V177H1696.72ZM1707.82 226.248C1718.37 209.267 1731.31 196.863 1746.57 188.783L1740.96 178.177C1723.58 187.377 1709.15 201.372 1697.63 219.912L1707.82 226.248ZM1746.69 188.718C1761.97 180.181 1780.12 175.8 1801.36 175.8V163.8C1778.45 163.8 1758.2 168.539 1740.84 178.242L1746.69 188.718ZM1801.36 175.8C1825.37 175.8 1845.82 181.329 1862.96 192.153L1869.37 182.007C1850.03 169.791 1827.28 163.8 1801.36 163.8V175.8ZM1862.96 192.153C1880.09 202.974 1893.53 218.816 1903.19 239.972L1914.1 234.988C1903.6 211.984 1888.71 194.226 1869.37 182.007L1862.96 192.153ZM1914.1 239.972C1923.76 218.816 1937.19 202.974 1954.33 192.153L1947.92 182.007C1928.57 194.226 1913.69 211.984 1903.19 234.988L1914.1 239.972ZM1954.27 192.19C1971.88 181.349 1993.07 175.8 2018.08 175.8V163.8C1991.25 163.8 1967.8 169.771 1947.98 181.97L1954.27 192.19ZM2018.08 175.8C2060.38 175.8 2092.68 189.211 2115.82 215.522L2124.83 207.598C2099 178.229 2063.15 163.8 2018.08 163.8V175.8ZM2115.82 215.522C2139.04 241.936 2151.04 279.228 2151.04 328.2H2163.04C2163.04 277.332 2150.56 236.864 2124.83 207.598L2115.82 215.522ZM2151.04 328.2V468.6H2163.04V328.2H2151.04ZM2157.04 474.6H2204.56V462.6H2157.04V474.6ZM2198.56 468.6V537H2210.56V468.6H2198.56ZM2204.56 531H1991.44V543H2204.56V531ZM1997.44 537V468.6H1985.44V537H1997.44ZM1991.44 474.6H2031.76V462.6H1991.44V474.6ZM2037.76 468.6V337.56H2025.76V468.6H2037.76ZM2037.76 337.56C2037.76 306.505 2033.67 282.284 2024.82 265.625L2014.23 271.255C2021.7 285.316 2025.76 307.175 2025.76 337.56H2037.76ZM2024.89 265.757C2020.72 257.422 2015.45 250.785 2008.91 246.235C2002.31 241.645 1994.74 239.4 1986.4 239.4V251.4C1992.47 251.4 1997.62 252.995 2002.06 256.085C2006.56 259.215 2010.64 264.098 2014.16 271.123L2024.89 265.757ZM1986.4 239.4C1974.22 239.4 1963.41 243.894 1954.21 252.551L1962.44 261.289C1969.56 254.586 1977.47 251.4 1986.4 251.4V239.4ZM1954.21 252.551C1945.14 261.084 1938.44 272.604 1933.89 286.764L1945.32 290.436C1949.4 277.716 1955.18 268.116 1962.44 261.289L1954.21 252.551ZM1933.89 286.764C1929.35 300.898 1927.12 316.652 1927.12 333.96H1939.12C1939.12 317.668 1941.22 303.182 1945.32 290.436L1933.89 286.764ZM1927.12 333.96V468.6H1939.12V333.96H1927.12ZM1933.12 474.6H1973.44V462.6H1933.12V474.6ZM1967.44 468.6V537H1979.44V468.6H1967.44ZM1973.44 531H1767.52V543H1973.44V531ZM1773.52 537V468.6H1761.52V537H1773.52ZM1767.52 474.6H1807.84V462.6H1767.52V474.6ZM1813.84 468.6V337.56H1801.84V468.6H1813.84ZM1813.84 337.56C1813.84 306.505 1809.75 282.284 1800.9 265.625L1790.31 271.255C1797.78 285.316 1801.84 307.175 1801.84 337.56H1813.84ZM1800.97 265.757C1796.8 257.422 1791.53 250.785 1784.99 246.235C1778.39 241.645 1770.82 239.4 1762.48 239.4V251.4C1768.55 251.4 1773.7 252.995 1778.14 256.085C1782.64 259.215 1786.72 264.098 1790.24 271.123L1800.97 265.757ZM1762.48 239.4C1750.06 239.4 1739.18 244.566 1730.04 254.24L1738.77 262.48C1745.95 254.874 1753.79 251.4 1762.48 251.4V239.4ZM1730.16 254.117C1721.05 263.23 1714.4 276.026 1709.91 292.016L1721.46 295.264C1725.6 280.534 1731.44 269.81 1738.65 262.603L1730.16 254.117ZM1709.91 292.016C1705.41 308.022 1703.2 326.348 1703.2 346.92H1715.2C1715.2 327.172 1717.32 309.978 1721.46 295.264L1709.91 292.016ZM1703.2 346.92V468.6H1715.2V346.92H1703.2ZM1709.2 474.6H1749.52V462.6H1709.2V474.6ZM1743.52 468.6V537H1755.52V468.6H1743.52ZM1749.52 531H1529.2V543H1749.52V531ZM1535.2 537V468.6H1523.2V537H1535.2ZM2223.19 468.6V462.6H2217.19V468.6H2223.19ZM2278.63 468.6V474.6H2284.63V468.6H2278.63ZM2278.63 245.4H2284.63V239.4H2278.63V245.4ZM2223.19 245.4H2217.19V251.4H2223.19V245.4ZM2223.19 177V171H2217.19V177H2223.19ZM2403.19 177H2409.19V171H2403.19V177ZM2403.19 468.6H2397.19V474.6H2403.19V468.6ZM2458.63 468.6H2464.63V462.6H2458.63V468.6ZM2458.63 537V543H2464.63V537H2458.63ZM2223.19 537H2217.19V543H2223.19V537ZM2250.55 0.599953V-5.40005H2240.4L2245.29 3.49147L2250.55 0.599953ZM2416.15 0.599953L2421.41 3.49147L2426.3 -5.40005H2416.15V0.599953ZM2336.95 144.6V150.6H2340.5L2342.21 147.492L2336.95 144.6ZM2329.75 144.6L2324.49 147.492L2326.2 150.6H2329.75V144.6ZM2223.19 474.6H2278.63V462.6H2223.19V474.6ZM2284.63 468.6V245.4H2272.63V468.6H2284.63ZM2278.63 239.4H2223.19V251.4H2278.63V239.4ZM2229.19 245.4V177H2217.19V245.4H2229.19ZM2223.19 183H2403.19V171H2223.19V183ZM2397.19 177V468.6H2409.19V177H2397.19ZM2403.19 474.6H2458.63V462.6H2403.19V474.6ZM2452.63 468.6V537H2464.63V468.6H2452.63ZM2458.63 531H2223.19V543H2458.63V531ZM2229.19 537V468.6H2217.19V537H2229.19ZM2250.55 6.59995H2416.15V-5.40005H2250.55V6.59995ZM2410.89 -2.29156L2331.69 141.708L2342.21 147.492L2421.41 3.49147L2410.89 -2.29156ZM2336.95 138.6H2329.75V150.6H2336.95V138.6ZM2335.01 141.708L2255.81 -2.29156L2245.29 3.49147L2324.49 147.492L2335.01 141.708ZM2559.82 510.36L2555.62 514.652L2555.65 514.676L2555.67 514.7L2559.82 510.36ZM2528.86 245.4H2534.86V239.4H2528.86V245.4ZM2469.82 245.4H2463.82V251.4H2469.82V245.4ZM2469.82 177V171H2463.82V177H2469.82ZM2567.02 153.96L2571.06 158.388L2567.02 153.96ZM2592.22 69V63H2586.22V69H2592.22ZM2653.42 69H2659.42V63H2653.42V69ZM2653.42 177H2647.42V183H2653.42V177ZM2755.66 177H2761.66V171H2755.66V177ZM2755.66 245.4V251.4H2761.66V245.4H2755.66ZM2653.42 245.4V239.4H2647.42V245.4H2653.42ZM2664.22 456.36L2659.72 460.33L2659.84 460.47L2659.97 460.603L2664.22 456.36ZM2729.74 464.28L2730.91 470.163L2731 470.146L2731.09 470.126L2729.74 464.28ZM2761.42 454.92H2767.42V446.149L2759.24 449.328L2761.42 454.92ZM2761.42 525.48L2763.09 531.242L2767.42 529.986V525.48H2761.42ZM2709.58 536.28L2708.71 530.343L2708.7 530.345L2708.69 530.346L2709.58 536.28ZM2647.66 534.6C2611.31 534.6 2583.67 524.838 2563.96 506.02L2555.67 514.7C2578.2 536.202 2609.13 546.6 2647.66 546.6V534.6ZM2564.01 506.068C2544.81 487.317 2534.86 460.715 2534.86 425.4H2522.86C2522.86 463.045 2533.54 493.083 2555.62 514.652L2564.01 506.068ZM2534.86 425.4V245.4H2522.86V425.4H2534.86ZM2528.86 239.4H2469.82V251.4H2528.86V239.4ZM2475.82 245.4V177H2463.82V245.4H2475.82ZM2469.82 183H2501.5V171H2469.82V183ZM2501.5 183C2529.59 183 2552.96 174.938 2571.06 158.388L2562.97 149.532C2547.47 163.702 2527.17 171 2501.5 171V183ZM2571.06 158.388C2589.5 141.534 2598.22 116.63 2598.22 84.84H2586.22C2586.22 114.49 2578.13 135.666 2562.97 149.532L2571.06 158.388ZM2598.22 84.84V69H2586.22V84.84H2598.22ZM2592.22 75H2653.42V63H2592.22V75ZM2647.42 69V177H2659.42V69H2647.42ZM2653.42 183H2755.66V171H2653.42V183ZM2749.66 177V245.4H2761.66V177H2749.66ZM2755.66 239.4H2653.42V251.4H2755.66V239.4ZM2647.42 245.4V421.8H2659.42V245.4H2647.42ZM2647.42 421.8C2647.42 437.602 2651.24 450.727 2659.72 460.33L2668.72 452.39C2662.79 445.673 2659.42 435.758 2659.42 421.8H2647.42ZM2659.97 460.603C2669.03 469.662 2681.27 473.88 2695.9 473.88V461.88C2683.65 461.88 2674.76 458.418 2668.46 452.117L2659.97 460.603ZM2695.9 473.88C2706.91 473.88 2718.58 472.629 2730.91 470.163L2728.56 458.396C2716.89 460.731 2706 461.88 2695.9 461.88V473.88ZM2731.09 470.126C2743.75 467.204 2754.6 464.007 2763.59 460.512L2759.24 449.328C2750.95 452.553 2740.68 455.596 2728.39 458.434L2731.09 470.126ZM2755.42 454.92V525.48H2767.42V454.92H2755.42ZM2759.74 519.718C2745.19 523.943 2728.19 527.492 2708.71 530.343L2710.45 542.217C2730.32 539.308 2747.88 535.657 2763.09 531.242L2759.74 519.718ZM2708.69 530.346C2689.82 533.177 2669.48 534.6 2647.66 534.6V546.6C2669.99 546.6 2690.93 545.143 2710.47 542.214L2708.69 530.346Z" fill="white" mask="url(#path-1-inside-1_3720_10414)"/>
</svg>
