<svg width="16" height="16" viewBox="0 0 16 16" fill="none" xmlns="http://www.w3.org/2000/svg">
<path d="M8 7.16667C10.0833 7.16667 11.8542 6.84028 13.3125 6.1875C14.7708 5.53472 15.5 4.75 15.5 3.83333C15.5 2.91667 14.7708 2.13194 13.3125 1.47917C11.8542 0.826389 10.0833 0.5 8 0.5C5.91667 0.5 4.14583 0.826389 2.6875 1.47917C1.22917 2.13194 0.5 2.91667 0.5 3.83333C0.5 4.75 1.22917 5.53472 2.6875 6.1875C4.14583 6.84028 5.91667 7.16667 8 7.16667ZM8 9.25C8.56944 9.25 9.28125 9.19097 10.1354 9.07292C10.9896 8.95486 11.8125 8.76389 12.6042 8.5C13.3958 8.23611 14.0764 7.89236 14.6458 7.46875C15.2153 7.04514 15.5 6.52778 15.5 5.91667V8C15.5 8.61111 15.2153 9.12847 14.6458 9.55208C14.0764 9.97569 13.3958 10.3194 12.6042 10.5833C11.8125 10.8472 10.9896 11.0382 10.1354 11.1562C9.28125 11.2743 8.56944 11.3333 8 11.3333C7.43056 11.3333 6.71875 11.2743 5.86458 11.1562C5.01042 11.0382 4.1875 10.8472 3.39583 10.5833C2.60417 10.3194 1.92361 9.97569 1.35417 9.55208C0.784722 9.12847 0.5 8.61111 0.5 8V5.91667C0.5 6.52778 0.784722 7.04514 1.35417 7.46875C1.92361 7.89236 2.60417 8.23611 3.39583 8.5C4.1875 8.76389 5.01042 8.95486 5.86458 9.07292C6.71875 9.19097 7.43056 9.25 8 9.25ZM8 13.4167C8.56944 13.4167 9.28125 13.3576 10.1354 13.2396C10.9896 13.1215 11.8125 12.9306 12.6042 12.6667C13.3958 12.4028 14.0764 12.059 14.6458 11.6354C15.2153 11.2118 15.5 10.6944 15.5 10.0833V12.1667C15.5 12.7778 15.2153 13.2951 14.6458 13.7188C14.0764 14.1424 13.3958 14.4861 12.6042 14.75C11.8125 15.0139 10.9896 15.2049 10.1354 15.3229C9.28125 15.441 8.56944 15.5 8 15.5C7.43056 15.5 6.71875 15.441 5.86458 15.3229C5.01042 15.2049 4.1875 15.0139 3.39583 14.75C2.60417 14.4861 1.92361 14.1424 1.35417 13.7188C0.784722 13.2951 0.5 12.7778 0.5 12.1667V10.0833C0.5 10.6944 0.784722 11.2118 1.35417 11.6354C1.92361 12.059 2.60417 12.4028 3.39583 12.6667C4.1875 12.9306 5.01042 13.1215 5.86458 13.2396C6.71875 13.3576 7.43056 13.4167 8 13.4167Z" fill="#909090"/>
</svg>
