<svg width="16" height="16" viewBox="0 0 16 16" fill="none" xmlns="http://www.w3.org/2000/svg">
<path d="M2.16698 15.5C1.45865 15.5 0.955178 15.184 0.656566 14.5521C0.357955 13.9201 0.430872 13.3333 0.875316 12.7917L5.50032 7.16667V2.16667H4.66698C4.43087 2.16667 4.23296 2.08681 4.07323 1.92708C3.91351 1.76736 3.83365 1.56944 3.83365 1.33333C3.83365 1.09722 3.91351 0.899306 4.07323 0.739583C4.23296 0.579861 4.43087 0.5 4.66698 0.5H11.3337C11.5698 0.5 11.7677 0.579861 11.9274 0.739583C12.0871 0.899306 12.167 1.09722 12.167 1.33333C12.167 1.56944 12.0871 1.76736 11.9274 1.92708C11.7677 2.08681 11.5698 2.16667 11.3337 2.16667H10.5003V7.16667L15.1253 12.7917C15.5698 13.3333 15.6427 13.9201 15.3441 14.5521C15.0455 15.184 14.542 15.5 13.8337 15.5H2.16698ZM3.83365 13H12.167L9.33365 9.66667H6.66698L3.83365 13Z" fill="#909090"/>
</svg>
