<svg width="20" height="20" viewBox="0 0 20 20" fill="none" xmlns="http://www.w3.org/2000/svg">
<path d="M6 14C6.55 14 7.02083 13.8042 7.4125 13.4125C7.80417 13.0208 8 12.55 8 12C8 11.45 7.80417 10.9792 7.4125 10.5875C7.02083 10.1958 6.55 10 6 10C5.45 10 4.97917 10.1958 4.5875 10.5875C4.19583 10.9792 4 11.45 4 12C4 12.55 4.19583 13.0208 4.5875 13.4125C4.97917 13.8042 5.45 14 6 14ZM14 14C14.55 14 15.0208 13.8042 15.4125 13.4125C15.8042 13.0208 16 12.55 16 12C16 11.45 15.8042 10.9792 15.4125 10.5875C15.0208 10.1958 14.55 10 14 10C13.45 10 12.9792 10.1958 12.5875 10.5875C12.1958 10.9792 12 11.45 12 12C12 12.55 12.1958 13.0208 12.5875 13.4125C12.9792 13.8042 13.45 14 14 14ZM10 8C10.55 8 11.0208 7.80417 11.4125 7.4125C11.8042 7.02083 12 6.55 12 6C12 5.45 11.8042 4.97917 11.4125 4.5875C11.0208 4.19583 10.55 4 10 4C9.45 4 8.97917 4.19583 8.5875 4.5875C8.19583 4.97917 8 5.45 8 6C8 6.55 8.19583 7.02083 8.5875 7.4125C8.97917 7.80417 9.45 8 10 8ZM10 20C8.61667 20 7.31667 19.7375 6.1 19.2125C4.88333 18.6875 3.825 17.975 2.925 17.075C2.025 16.175 1.3125 15.1167 0.7875 13.9C0.2625 12.6833 0 11.3833 0 10C0 8.61667 0.2625 7.31667 0.7875 6.1C1.3125 4.88333 2.025 3.825 2.925 2.925C3.825 2.025 4.88333 1.3125 6.1 0.7875C7.31667 0.2625 8.61667 0 10 0C11.3833 0 12.6833 0.2625 13.9 0.7875C15.1167 1.3125 16.175 2.025 17.075 2.925C17.975 3.825 18.6875 4.88333 19.2125 6.1C19.7375 7.31667 20 8.61667 20 10C20 11.3833 19.7375 12.6833 19.2125 13.9C18.6875 15.1167 17.975 16.175 17.075 17.075C16.175 17.975 15.1167 18.6875 13.9 19.2125C12.6833 19.7375 11.3833 20 10 20Z" fill="#909090"/>
</svg>
