<svg width="18" height="21" viewBox="0 0 18 21" fill="none" xmlns="http://www.w3.org/2000/svg">
<path d="M9.00084 9.5C9.70084 9.5 10.2925 9.25833 10.7758 8.775C11.2592 8.29167 11.5008 7.7 11.5008 7C11.5008 6.3 11.2592 5.70833 10.7758 5.225C10.2925 4.74167 9.70084 4.5 9.00084 4.5C8.30084 4.5 7.70918 4.74167 7.22584 5.225C6.74251 5.70833 6.50084 6.3 6.50084 7C6.50084 7.7 6.74251 8.29167 7.22584 8.775C7.70918 9.25833 8.30084 9.5 9.00084 9.5ZM9.00084 14C8.35084 14 7.76334 13.8208 7.23834 13.4625C6.71334 13.1042 6.33418 12.6333 6.10084 12.05C6.01751 12.05 5.94251 12.0542 5.87584 12.0625C5.80918 12.0708 5.73418 12.075 5.65084 12.075C4.78418 12.075 4.04251 11.7667 3.42584 11.15C2.80918 10.5333 2.50084 9.79167 2.50084 8.925C2.50084 8.575 2.55918 8.2375 2.67584 7.9125C2.79251 7.5875 2.96751 7.28333 3.20084 7C2.98417 6.71667 2.81751 6.4125 2.70084 6.0875C2.58418 5.7625 2.52584 5.425 2.52584 5.075C2.52584 4.20833 2.83001 3.46667 3.43834 2.85C4.04668 2.23333 4.78418 1.925 5.65084 1.925C5.73418 1.925 5.80918 1.92917 5.87584 1.9375C5.94251 1.94583 6.01751 1.95 6.10084 1.95C6.33418 1.36667 6.71334 0.895833 7.23834 0.5375C7.76334 0.179167 8.35084 0 9.00084 0C9.65084 0 10.2383 0.179167 10.7633 0.5375C11.2883 0.895833 11.6675 1.36667 11.9008 1.95C11.9842 1.95 12.0592 1.94583 12.1258 1.9375C12.1925 1.92917 12.2675 1.925 12.3508 1.925C13.2175 1.925 13.955 2.23333 14.5633 2.85C15.1717 3.46667 15.4758 4.20833 15.4758 5.075C15.4758 5.425 15.4217 5.7625 15.3133 6.0875C15.205 6.4125 15.0342 6.71667 14.8008 7C15.0175 7.28333 15.1842 7.5875 15.3008 7.9125C15.4175 8.2375 15.4758 8.575 15.4758 8.925C15.4758 9.79167 15.1717 10.5333 14.5633 11.15C13.955 11.7667 13.2175 12.075 12.3508 12.075C12.2675 12.075 12.1925 12.0708 12.1258 12.0625C12.0592 12.0542 11.9842 12.05 11.9008 12.05C11.6675 12.6333 11.2883 13.1042 10.7633 13.4625C10.2383 13.8208 9.65084 14 9.00084 14ZM9.00084 20.975C9.00084 18.875 9.63418 17.0167 10.9008 15.4C12.1675 13.7833 13.7758 12.7333 15.7258 12.25C16.0425 12.1667 16.355 12.1375 16.6633 12.1625C16.9717 12.1875 17.2425 12.3167 17.4758 12.55C17.6758 12.7667 17.7883 13.025 17.8133 13.325C17.8383 13.625 17.8092 13.9167 17.7258 14.2C17.2592 16.1667 16.2133 17.7875 14.5883 19.0625C12.9633 20.3375 11.1008 20.975 9.00084 20.975ZM9.00084 21C9.00084 18.9 8.36751 17.0417 7.10084 15.425C5.83418 13.8083 4.22584 12.7583 2.27584 12.275C1.95917 12.1917 1.64667 12.1625 1.33834 12.1875C1.03001 12.2125 0.759175 12.3417 0.525841 12.575C0.325841 12.7917 0.213341 13.05 0.188341 13.35C0.163341 13.65 0.192508 13.9417 0.275841 14.225C0.742508 16.1917 1.78834 17.8125 3.41334 19.0875C5.03834 20.3625 6.90084 21 9.00084 21Z" fill="#909090"/>
</svg>
