<svg width="22" height="21" viewBox="0 0 22 21" fill="none" xmlns="http://www.w3.org/2000/svg">
<path d="M0.746131 15.55C0.529464 15.4 0.400298 15.1958 0.358631 14.9375C0.316964 14.6792 0.362798 14.4333 0.496131 14.2L4.27113 8.15001C4.45446 7.86667 4.70863 7.71251 5.03363 7.68751C5.35863 7.66251 5.6378 7.77501 5.87113 8.02501L7.99613 10.5L11.1711 5.32501C11.3545 5.00834 11.6336 4.85001 12.0086 4.85001C12.3836 4.85001 12.6711 5.00001 12.8711 5.30001L13.8961 6.85001C14.0795 7.13334 14.1336 7.40417 14.0586 7.66251C13.9836 7.92084 13.8378 8.11667 13.6211 8.25001C13.4045 8.38334 13.167 8.43751 12.9086 8.41251C12.6503 8.38751 12.4295 8.23334 12.2461 7.95001L12.0711 7.70001L8.99613 12.7C8.8128 12.9833 8.55446 13.1417 8.22113 13.175C7.8878 13.2083 7.60446 13.0917 7.37113 12.825L5.24613 10.35L2.19613 15.275C2.04613 15.525 1.8253 15.6792 1.53363 15.7375C1.24196 15.7958 0.979464 15.7333 0.746131 15.55ZM15.0711 18.575C13.8211 18.575 12.7586 18.1375 11.8836 17.2625C11.0086 16.3875 10.5711 15.325 10.5711 14.075C10.5711 12.825 11.0086 11.7625 11.8836 10.8875C12.7586 10.0125 13.8211 9.57501 15.0711 9.57501C16.3211 9.57501 17.3836 10.0125 18.2586 10.8875C19.1336 11.7625 19.5711 12.825 19.5711 14.075C19.5711 14.5083 19.5128 14.9292 19.3961 15.3375C19.2795 15.7458 19.1045 16.125 18.8711 16.475L21.2711 18.875C21.4711 19.075 21.5753 19.3083 21.5836 19.575C21.592 19.8417 21.4961 20.075 21.2961 20.275C21.0961 20.475 20.8586 20.575 20.5836 20.575C20.3086 20.575 20.0711 20.475 19.8711 20.275L17.4461 17.875C17.1128 18.1083 16.742 18.2833 16.3336 18.4C15.9253 18.5167 15.5045 18.575 15.0711 18.575ZM15.0711 16.575C15.7711 16.575 16.3628 16.3333 16.8461 15.85C17.3295 15.3667 17.5711 14.775 17.5711 14.075C17.5711 13.375 17.3295 12.7833 16.8461 12.3C16.3628 11.8167 15.7711 11.575 15.0711 11.575C14.3711 11.575 13.7795 11.8167 13.2961 12.3C12.8128 12.7833 12.5711 13.375 12.5711 14.075C12.5711 14.775 12.8128 15.3667 13.2961 15.85C13.7795 16.3333 14.3711 16.575 15.0711 16.575ZM16.2961 8.30001C16.0795 8.16667 15.9295 7.97501 15.8461 7.72501C15.7628 7.47501 15.8128 7.20834 15.9961 6.92501L19.7961 0.900007C19.9461 0.666673 20.1628 0.516673 20.4461 0.450007C20.7295 0.38334 20.9878 0.441673 21.2211 0.625007C21.4378 0.775007 21.5711 0.979173 21.6211 1.23751C21.6711 1.49584 21.6295 1.74167 21.4961 1.97501L17.6711 7.97501C17.4878 8.25834 17.267 8.41667 17.0086 8.45001C16.7503 8.48334 16.5128 8.43334 16.2961 8.30001Z" fill="#909090"/>
</svg>
