<svg width="19" height="16" viewBox="0 0 19 16" fill="none" xmlns="http://www.w3.org/2000/svg">
<path d="M16.4922 11.3332V6.41656L9.78385 10.0624C9.53385 10.2013 9.26997 10.2707 8.99219 10.2707C8.71441 10.2707 8.45052 10.2013 8.20052 10.0624L1.15885 6.22906C1.00608 6.14573 0.898438 6.04156 0.835938 5.91656C0.773438 5.79156 0.742188 5.65268 0.742188 5.4999C0.742188 5.34712 0.773438 5.20823 0.835938 5.08323C0.898438 4.95823 1.00608 4.85406 1.15885 4.77073L8.20052 0.937398C8.32552 0.867954 8.45399 0.81587 8.58594 0.781148C8.71788 0.746426 8.8533 0.729065 8.99219 0.729065C9.13108 0.729065 9.26649 0.746426 9.39844 0.781148C9.53038 0.81587 9.65885 0.867954 9.78385 0.937398L17.7214 5.27073C17.8602 5.34018 17.9679 5.44087 18.0443 5.57281C18.1207 5.70476 18.1589 5.84712 18.1589 5.9999V11.3332C18.1589 11.5693 18.079 11.7673 17.9193 11.927C17.7596 12.0867 17.5616 12.1666 17.3255 12.1666C17.0894 12.1666 16.8915 12.0867 16.7318 11.927C16.572 11.7673 16.4922 11.5693 16.4922 11.3332ZM8.20052 15.0624L4.03385 12.8124C3.75608 12.6596 3.5408 12.4513 3.38802 12.1874C3.23524 11.9235 3.15885 11.6388 3.15885 11.3332V8.16656L8.20052 10.8957C8.45052 11.0346 8.71441 11.1041 8.99219 11.1041C9.26997 11.1041 9.53385 11.0346 9.78385 10.8957L14.8255 8.16656V11.3332C14.8255 11.6388 14.7491 11.9235 14.5964 12.1874C14.4436 12.4513 14.2283 12.6596 13.9505 12.8124L9.78385 15.0624C9.65885 15.1318 9.53038 15.1839 9.39844 15.2186C9.26649 15.2534 9.13108 15.2707 8.99219 15.2707C8.8533 15.2707 8.71788 15.2534 8.58594 15.2186C8.45399 15.1839 8.32552 15.1318 8.20052 15.0624Z" fill="#909090"/>
</svg>
