<svg width="48" height="48" viewBox="0 0 48 48" fill="none" xmlns="http://www.w3.org/2000/svg">
    <g clip-path="url(#clip0_140_218)">
        <path
            d="M18.24 0.701236L18.78 2.88374C16.6557 3.40615 14.6227 4.24691 12.75 5.37749L11.595 3.44999C13.6587 2.20398 15.8991 1.27725 18.24 0.701236ZM29.76 0.701236L29.22 2.88374C31.3442 3.40615 33.3772 4.24691 35.25 5.37749L36.4125 3.44999C34.3464 2.20329 32.1035 1.27654 29.76 0.701236ZM3.44999 11.595C2.20398 13.6587 1.27725 15.8991 0.701236 18.24L2.88374 18.78C3.40615 16.6557 4.24691 14.6227 5.37749 12.75L3.44999 11.595ZM2.24999 24C2.24926 22.9092 2.33074 21.8198 2.49374 20.7412L0.269986 20.4037C-0.0899954 22.7877 -0.0899954 25.2122 0.269986 27.5962L2.49374 27.2587C2.33074 26.1802 2.24926 25.0908 2.24999 24ZM36.405 44.55L35.25 42.6225C33.3796 43.7524 31.3491 44.5931 29.2275 45.1162L29.7675 47.2987C32.1058 46.722 34.3435 45.7953 36.405 44.55ZM45.75 24C45.7507 25.0908 45.6692 26.1802 45.5062 27.2587L47.73 27.5962C48.09 25.2122 48.09 22.7877 47.73 20.4037L45.5062 20.7412C45.6692 21.8198 45.7507 22.9092 45.75 24ZM47.2987 29.76L45.1162 29.22C44.5938 31.3442 43.7531 33.3772 42.6225 35.25L44.55 36.4125C45.7967 34.3464 46.7234 32.1035 47.2987 29.76ZM27.2587 45.51C25.0984 45.835 22.9016 45.835 20.7412 45.51L20.4037 47.7337C22.7877 48.0937 25.2122 48.0937 27.5962 47.7337L27.2587 45.51ZM41.5087 36.9037C40.2115 38.6606 38.6579 40.2129 36.9 41.5087L38.235 43.32C40.1743 41.8941 41.8884 40.1851 43.32 38.25L41.5087 36.9037ZM36.9 6.49124C38.6582 7.78819 40.2118 9.34175 41.5087 11.1L43.32 9.74999C41.893 7.81602 40.1839 6.10701 38.25 4.67999L36.9 6.49124ZM6.49124 11.1C7.78819 9.34175 9.34175 7.78819 11.1 6.49124L9.74999 4.67999C7.81602 6.10701 6.10701 7.81602 4.67999 9.74999L6.49124 11.1ZM44.55 11.595L42.6225 12.75C43.7524 14.6204 44.5931 16.6508 45.1162 18.7725L47.2987 18.2325C46.722 15.8942 45.7953 13.6564 44.55 11.595ZM20.7412 2.49374C22.9016 2.16871 25.0984 2.16871 27.2587 2.49374L27.5962 0.269986C25.2122 -0.0899954 22.7877 -0.0899954 20.4037 0.269986L20.7412 2.49374ZM7.64624 43.9162L2.99999 45L4.08374 40.3537L1.89374 39.84L0.809986 44.4862C0.722695 44.859 0.731962 45.2479 0.836911 45.616C0.941859 45.9842 1.13902 46.3195 1.40973 46.5902C1.68044 46.861 2.01575 47.0581 2.38393 47.1631C2.75211 47.268 3.14098 47.2773 3.51374 47.19L8.15624 46.125L7.64624 43.9162ZM2.36249 37.8337L4.55249 38.3437L5.30249 35.1225C4.2093 33.2852 3.39421 31.2961 2.88374 29.22L0.701236 29.76C1.1905 31.7484 1.93413 33.6655 2.91374 35.4637L2.36249 37.8337ZM12.8625 42.7087L9.64124 43.4587L10.1512 45.6487L12.5212 45.0975C14.3195 46.0771 16.2365 46.8207 18.225 47.31L18.765 45.1275C16.6932 44.6109 14.7093 43.7908 12.8775 42.6937L12.8625 42.7087ZM24 4.49999C20.5159 4.50179 17.0959 5.43705 14.0957 7.20848C11.0955 8.97992 8.62472 11.5228 6.94032 14.5727C5.25593 17.6226 4.41944 21.0681 4.51787 24.5508C4.61629 28.0336 5.64603 31.4263 7.49999 34.3762L5.62499 42.375L13.6237 40.5C16.182 42.1113 19.0799 43.1056 22.0885 43.4045C25.0971 43.7033 28.134 43.2985 30.9593 42.222C33.7845 41.1455 36.3208 39.4267 38.3676 37.2015C40.4145 34.9764 41.9159 32.3057 42.7532 29.4006C43.5906 26.4954 43.7409 23.4354 43.1924 20.4622C42.6439 17.4889 41.4115 14.684 39.5926 12.2689C37.7738 9.85375 35.4182 7.89467 32.7121 6.54637C30.006 5.19808 27.0234 4.4975 24 4.49999Z"
            fill="white" />
    </g>
    <defs>
        <clipPath id="clip0_140_218">
            <rect width="48" height="48" fill="white" />
        </clipPath>
    </defs>
</svg>
    