<svg width="16" height="15" viewBox="0 0 16 15" fill="none" xmlns="http://www.w3.org/2000/svg">
<path d="M8.0018 3.93746V10.4375L10.6268 12.0416L9.9393 9.04163L12.2518 7.04163L9.21014 6.77079L8.0018 3.93746ZM8.0018 12.3958L4.54347 14.4791C4.39069 14.5763 4.23097 14.618 4.0643 14.6041C3.89764 14.5902 3.7518 14.5347 3.6268 14.4375C3.5018 14.3402 3.40458 14.2187 3.33514 14.0729C3.26569 13.927 3.2518 13.7638 3.29347 13.5833L4.21014 9.64579L1.14764 6.99996C1.00875 6.87496 0.921942 6.7326 0.88722 6.57288C0.852497 6.41315 0.862914 6.2569 0.91847 6.10413C0.974025 5.95135 1.05736 5.82635 1.16847 5.72913C1.27958 5.6319 1.43236 5.5694 1.6268 5.54163L5.66847 5.18746L7.23097 1.47913C7.30041 1.31246 7.40805 1.18746 7.55389 1.10413C7.69972 1.02079 7.84903 0.979126 8.0018 0.979126C8.15458 0.979126 8.30389 1.02079 8.44972 1.10413C8.59555 1.18746 8.70319 1.31246 8.77264 1.47913L10.3351 5.18746L14.3768 5.54163C14.5712 5.5694 14.724 5.6319 14.8351 5.72913C14.9462 5.82635 15.0296 5.95135 15.0851 6.10413C15.1407 6.2569 15.1511 6.41315 15.1164 6.57288C15.0817 6.7326 14.9949 6.87496 14.856 6.99996L11.7935 9.64579L12.7101 13.5833C12.7518 13.7638 12.7379 13.927 12.6685 14.0729C12.599 14.2187 12.5018 14.3402 12.3768 14.4375C12.2518 14.5347 12.106 14.5902 11.9393 14.6041C11.7726 14.618 11.6129 14.5763 11.4601 14.4791L8.0018 12.3958Z" fill="#909090"/>
</svg>
