<svg width="22" height="17" viewBox="0 0 22 17" fill="none" xmlns="http://www.w3.org/2000/svg">
<path d="M16.0031 17C15.7198 17 15.4823 16.9042 15.2906 16.7125C15.099 16.5208 15.0031 16.2833 15.0031 16V13C15.0031 12.7167 15.099 12.4792 15.2906 12.2875C15.4823 12.0958 15.7198 12 16.0031 12V11C16.0031 10.45 16.199 9.97917 16.5906 9.5875C16.9823 9.19583 17.4531 9 18.0031 9C18.5531 9 19.024 9.19583 19.4156 9.5875C19.8073 9.97917 20.0031 10.45 20.0031 11V12C20.2865 12 20.524 12.0958 20.7156 12.2875C20.9073 12.4792 21.0031 12.7167 21.0031 13V16C21.0031 16.2833 20.9073 16.5208 20.7156 16.7125C20.524 16.9042 20.2865 17 20.0031 17H16.0031ZM17.0031 12H19.0031V11C19.0031 10.7167 18.9073 10.4792 18.7156 10.2875C18.524 10.0958 18.2865 10 18.0031 10C17.7198 10 17.4823 10.0958 17.2906 10.2875C17.099 10.4792 17.0031 10.7167 17.0031 11V12ZM11.0031 10.2C10.2531 10.2 9.61563 9.9375 9.09063 9.4125C8.56563 8.8875 8.30313 8.25 8.30313 7.5C8.30313 6.75 8.56563 6.1125 9.09063 5.5875C9.61563 5.0625 10.2531 4.8 11.0031 4.8C11.7531 4.8 12.3906 5.0625 12.9156 5.5875C13.4406 6.1125 13.7031 6.75 13.7031 7.5C13.7031 8.25 13.4406 8.8875 12.9156 9.4125C12.3906 9.9375 11.7531 10.2 11.0031 10.2ZM11.0031 15C8.76979 15 6.68229 14.4 4.74063 13.2C2.79896 12 1.35313 10.3833 0.403125 8.35C0.336458 8.21667 0.286458 8.07917 0.253125 7.9375C0.219792 7.79583 0.203125 7.65 0.203125 7.5C0.203125 7.35 0.219792 7.20417 0.253125 7.0625C0.286458 6.92083 0.336458 6.78333 0.403125 6.65C1.35313 4.61667 2.79896 3 4.74063 1.8C6.68229 0.6 8.76979 0 11.0031 0C12.1865 0 13.3156 0.1625 14.3906 0.4875C15.4656 0.8125 16.4781 1.28333 17.4281 1.9C18.1448 2.36667 18.8073 2.90417 19.4156 3.5125C20.024 4.12083 20.5615 4.8 21.0281 5.55C21.2281 5.86667 21.2323 6.1875 21.0406 6.5125C20.849 6.8375 20.5615 7 20.1781 7H18.0031C17.5365 7 17.0948 7.05833 16.6781 7.175C16.2615 7.29167 15.8698 7.45833 15.5031 7.675V7.5C15.5031 6.25 15.0656 5.1875 14.1906 4.3125C13.3156 3.4375 12.2531 3 11.0031 3C9.75313 3 8.69063 3.4375 7.81563 4.3125C6.94063 5.1875 6.50313 6.25 6.50313 7.5C6.50313 8.75 6.94063 9.8125 7.81563 10.6875C8.69063 11.5625 9.75313 12 11.0031 12C11.3698 12 11.724 11.9583 12.0656 11.875C12.4073 11.7917 12.7281 11.675 13.0281 11.525C13.0115 11.6083 13.0031 11.6875 13.0031 11.7625V13.9C13.0031 14.1667 12.9198 14.4 12.7531 14.6C12.5865 14.8 12.3698 14.9167 12.1031 14.95C11.9198 14.9667 11.7365 14.9792 11.5531 14.9875C11.3698 14.9958 11.1865 15 11.0031 15Z" fill="#909090"/>
</svg>
