<?xml version="1.0" encoding="utf-8"?>
<!-- Generator: Adobe Illustrator 27.1.1, SVG Export Plug-In . SVG Version: 6.00 Build 0)  -->
<svg version="1.1" id="eYFcXPTKZDA1" text-rendering="geometricPrecision" shape-rendering="geometricPrecision"
	 xmlns="http://www.w3.org/2000/svg" xmlns:xlink="http://www.w3.org/1999/xlink" x="0px" y="0px" viewBox="0 0 340 50"
	 style="enable-background:new 0 0 340 50;" xml:space="preserve">
<style type="text/css">
	.st0{fill:#FFFFFF;}
</style>
<g>
	<rect x="300.6" y="40.7" class="st0" width="32.1" height="4.2"/>
	<g>
		<path class="st0" d="M71.4,5.1L56.9,45h6.4l3.1-8.9h15.1l3,8.9H91L76.5,5.1H71.4z M68.1,30.7l5.8-17.4H74l5.8,17.4L68.1,30.7z"/>
		<rect x="106.2" y="5.1" class="st0" width="6.1" height="39.9"/>
		<polygon class="st0" points="136.1,5.1 130.1,5.1 130.1,45 155.5,45 155.5,39.3 136.1,39.3 		"/>
		<path class="st0" d="M236.6,30.8c0,5.5-3.5,8.5-8.1,8.5c-4.6,0-8.1-3-8.1-8.5V5.1h-6.1l0,26.4c0,8.3,6.3,13.8,14.2,13.8
			c7.9,0,14.2-5.5,14.2-13.8V5.1h-6V30.8z"/>
		<polygon class="st0" points="284,5.1 284,33.4 283.9,33.4 265.9,5.1 260.1,5.1 260.1,45 266.2,45 266.2,16.6 266.3,16.6 284.3,45 
			290,45 290,5.1 		"/>
		<path class="st0" d="M191.6,16.6h6.4c-1.3-6.5-6.5-11.8-14-11.8c-5.2-0.1-9.9,2.7-12.5,7.2c-1,1.8-1.5,2.9-1.7,7.5
			c0,0-0.1,4.1-0.1,5.6v3.5v15.9h6.2V18.6c0.3-2.7,0.8-3.6,1.8-4.9c1.5-1.9,3.8-3,6.2-2.9C187.5,10.9,190.6,13.2,191.6,16.6z"/>
		<polygon class="st0" points="184,28.7 191.9,28.7 191.9,44.4 198.1,44.4 198.2,23 184,23 		"/>
		<path class="st0" d="M41.8,16.2c0-3.3-1.5-6.4-4-8.5c-2.1-1.8-4.7-2.6-8.1-2.6H14.1V10H5.3v6.4h24.6v-5.9c1.5-0.1,2.9,0.4,4.1,1.2
			c1.4,1.1,2.1,2.8,2,4.5c0,3.4-2.2,6.3-6.8,6.3H14.1V45h6v-17h7.7l8.2,17h7.2L34,27.2C38.8,25.7,41.9,21.2,41.8,16.2z"/>
	</g>
</g>
</svg>
